<?xml version="1.0" encoding="utf-8"?>
<!-- Generator: Adobe Illustrator 16.2.1, SVG Export Plug-In . SVG Version: 6.00 Build 0)  -->
<!DOCTYPE svg PUBLIC "-//W3C//DTD SVG 1.1//EN" "http://www.w3.org/Graphics/SVG/1.1/DTD/svg11.dtd">
<svg version="1.1" id="Layer_1" xmlns="http://www.w3.org/2000/svg" xmlns:xlink="http://www.w3.org/1999/xlink" x="0px" y="0px"
	 width="20px" height="20px" viewBox="0 0 20 20" enable-background="new 0 0 20 20" xml:space="preserve">
<path fill="#FFFFFF" d="M10,0C4.478,0,0,4.477,0,10c0,5.521,4.478,10,10,10s10-4.479,10-10C20,4.477,15.522,0,10,0z M10,18.625
	c-4.764,0-8.625-3.861-8.625-8.625c0-4.764,3.861-8.625,8.625-8.625S18.625,5.236,18.625,10C18.625,14.764,14.762,18.625,10,18.625z
	"/>
<g>
	
		<rect x="11.883" y="3.907" transform="matrix(0.7073 -0.7069 0.7069 0.7073 -1.7146 11.1199)" fill="#FFFFFF" width="1.375" height="7.446"/>
	<rect x="4.311" y="9.078" fill="#FFFFFF" width="10.38" height="1.375"/>
	
		<rect x="11.883" y="8.189" transform="matrix(-0.7068 -0.7075 0.7075 -0.7068 13.0274 29.2232)" fill="#FFFFFF" width="1.375" height="7.445"/>
</g>
</svg>
