<?xml  version="1.0" encoding="UTF-8"?>
<!DOCTYPE svg PUBLIC "-//W3C//DTD SVG 1.0//EN" "http://www.w3.org/TR/2001/REC-SVG-20010904/DTD/svg10.dtd" >
<svg xmlns="http://www.w3.org/2000/svg" >
<metadata>
<version>1.0</version>
<id><![CDATA[Avenir Next LT W01 Ult Lt Cn SC]]></id>
<vendor>Monotype Imaging Inc.</vendor>
<credits>
<name>Fonts.com WebFonts</name>
<URL>http://webfonts.fonts.com</URL>
<role>Home of the Web fonts</role>
</credits>
<license>
<URL>http://webfonts.fonts.com/Legal</URL>
</license>
<copyright><![CDATA[Copyright © 2004 - 2007 Linotype GmbH, www.linotype.com. All rights reserved. This font software may not be reproduced, modified, disclosed or transferred without the express written approval of Linotype GmbH. Avenir is a trademark of Linotype GmbH registered in the U.S. Patent and Trademark Office and may be registered in certain other jurisdictions. This typeface is original artwork of Adrian Frutiger and Akira Kobayashi. The design may be protected in certain jurisdictions.]]></copyright>
<trademark><![CDATA[Avenir is a trademark of Linotype GmbH registered in the U.S. Patent and Trademark Office and may be registered in certain other jurisdictions.]]></trademark>
<licensee>
<name></name>
</licensee>
</metadata>
<defs >
<font horiz-adv-x="384" id="1aca2052-8139-441c-b376-799a244d473d">
<font-face font-family="" panose-1="2 11 2 6 2 2 2 2 2 4" ascent="945" descent="-250" units-per-em="1000" alphabetic="0">
</font-face>
<missing-glyph horiz-adv-x="180" />

<glyph unicode="&#xA;" />
<glyph unicode="&#xD;" />
<glyph unicode=" " horiz-adv-x="180" />
<glyph unicode="!" horiz-adv-x="230" d="M102 549H124V149H102V549ZM115 -5Q107 -5 101 1T94 17Q94 28 100 34T115 40Q123 40 129 34T136 17Q136 8 130 2T115 -5Z"  />
<glyph unicode="&quot;" horiz-adv-x="300" d="M90 480V708H112V480H90ZM188 480V708H210V480H188Z"  />
<glyph unicode="#" horiz-adv-x="330" d="M240 453L224 257H292V240H223L205 0H185L203 240H109L91 0H70L88 240H22V257H89L106 453H39V470H107L125 708H145L127 470H221L239 708H260L241 470H308V453H240ZM126 453L110 257H204L220 453H126Z"  />
<glyph unicode="$" horiz-adv-x="372" d="M193 -60H171V0Q137 2 108 17T61 56L76 72Q96 47 120 35T171 20V268Q149 278 131 289T99 317T79 357T72 412Q72 471 99 505T171 547V609H193V548Q223 547 251 536T299 495L282 480Q249 526 193 528V284Q215 274 235 263T270 235T293 196T302 141Q302 77 271 41T193 0V-60ZM171 527Q139 521 117 492T94 411Q94 384 100 365T116 332T141 309T171 293V527ZM193 20Q230 23 254 55T279 141Q279 168 272 187T254 219T227 242T193 260V20Z"  />
<glyph unicode="%" horiz-adv-x="465" d="M123 288Q84 288 63 326T42 424Q42 483 62 522T123 561Q162 561 183 522T204 424Q204 365 183 327T123 288ZM123 541Q94 541 79 509T64 424Q64 373 79 341T123 308Q152 308 167 340T182 424Q182 476 167 508T123 541ZM342 -10Q303 -10 282 28T261 126Q261 185 281 224T342 263Q381 263 402 224T423 126Q423 67 402 29T342 -10ZM342 243Q313 243 298 211T283 126Q283 75 298 43T342 10Q371 10 386 42T401 126Q401 178 386 210T342 243ZM120 -11L322 571L343 565L140 -18L120 -11Z"  />
<glyph unicode="&amp;" horiz-adv-x="386" d="M273 89Q265 68 255 50T231 17T199 -6T157 -14Q101 -14 71 27T41 140Q41 200 67 237T134 304Q106 349 96 379T85 443Q85 468 90 490T107 528T135 553T174 563Q216 563 237 532T259 452Q259 425 252 404T232 364T202 331T163 299L269 132L323 289H347L284 114L357 0H330L273 89ZM174 543Q143 543 125 516T107 444Q107 409 119 379T153 316Q172 330 187 344T214 373T231 407T237 449Q237 493 220 518T174 543ZM145 286Q112 263 88 229T63 140Q63 77 89 42T158 7Q195 7 219 36T258 110L145 286Z"  />
<glyph unicode="&apos;" horiz-adv-x="202" d="M90 480V708H112V480H90Z"  />
<glyph unicode="(" horiz-adv-x="230" d="M50 288Q50 348 58 408T81 525T119 634T168 732L186 722Q159 681 138 629T103 519T80 402T72 288Q72 234 80 175T102 58T138 -52T186 -146L168 -156Q141 -111 119 -59T82 51T58 168T50 288Z"  />
<glyph unicode=")" horiz-adv-x="230" d="M180 288Q180 228 172 168T149 51T111 -58T62 -156L44 -146Q71 -105 92 -53T127 57T150 174T158 288Q158 342 150 401T128 518T92 628T44 722L62 732Q89 687 111 635T148 525T172 408T180 288Z"  />
<glyph unicode="*" horiz-adv-x="400" d="M361 589L367 572L213 522L310 380L295 370L201 513L107 370L92 380L189 522L35 572L41 589L192 537V708H210V537L361 589Z"  />
<glyph unicode="+" horiz-adv-x="666" d="M345 65H324V295H100V314H324V544H345V314H566V295H345V65Z"  />
<glyph unicode="&#x2c;" horiz-adv-x="190" d="M55 -138H38L95 90H119L55 -138Z"  />
<glyph unicode="-" horiz-adv-x="216" d="M43 244V264H173V244H43Z"  />
<glyph unicode="." horiz-adv-x="190" d="M95 -6Q86 -6 79 1T72 20Q72 31 79 38T95 45Q104 45 111 38T118 20Q118 8 111 1T95 -6Z"  />
<glyph unicode="/" horiz-adv-x="300" d="M73 -32L53 -27L228 737L247 732L73 -32Z"  />
<glyph unicode="0" horiz-adv-x="372" d="M186 -14Q145 -14 120 12T81 81T63 174T58 274Q58 323 62 374T81 467T120 536T186 563Q227 563 252 536T291 467T309 374T314 274Q314 225 310 174T291 81T252 13T186 -14ZM186 543Q162 543 145 529T116 492T97 440T86 381T81 323T80 274Q80 242 83 197T96 109T128 36T186 6Q222 6 243 36T275 108T289 196T292 274Q292 295 291 323T286 381T275 440T257 492T228 529T186 543Z"  />
<glyph unicode="1" horiz-adv-x="372" d="M200 522L94 436L82 452L202 549H222V0H200V522Z"  />
<glyph unicode="2" horiz-adv-x="372" d="M82 20H311V0H60V24L211 243Q245 293 264 337T284 423Q284 472 261 507T190 542Q151 542 124 520T86 449L65 454Q78 506 108 534T190 563Q221 563 243 552T279 521T299 478T306 428Q306 377 287 331T226 226L82 20Z"  />
<glyph unicode="3" horiz-adv-x="372" d="M208 289Q261 281 287 242T314 144Q314 118 307 91T283 40T240 1T177 -14Q128 -14 96 10T47 78L67 89Q81 51 109 29T177 6Q206 6 227 18T263 50T285 95T292 144Q292 209 259 244T171 280H140V300H171Q219 300 247 333T275 424Q275 444 270 465T254 503T224 532T178 543Q152 543 127 529T88 485L69 495Q86 529 115 546T178 563Q209 563 231 551T268 520T290 475T297 424Q297 402 293 381T278 342T251 311T208 291V289Z"  />
<glyph unicode="4" horiz-adv-x="372" d="M256 0H234V136H29V160L220 549H256V157H333V136H256V0ZM51 157H234V527H232L51 157Z"  />
<glyph unicode="5" horiz-adv-x="372" d="M169 -14Q118 -14 89 9T46 65L65 76Q79 41 106 24T169 6Q193 6 213 17T249 50T272 102T281 168Q281 235 253 278T169 322Q148 322 125 315T83 291L88 549H289V529H109L104 326Q136 342 170 342Q205 342 230 329T271 292T295 237T303 168Q303 128 294 95T267 37T225 0T169 -14Z"  />
<glyph unicode="6" horiz-adv-x="372" d="M110 302Q125 318 144 328T192 339Q224 339 247 325T287 287T310 231T318 162Q318 124 310 92T284 37T243 0T186 -14Q153 -14 128 -1T86 36T61 92T52 160Q52 192 61 228T88 302L206 549H229L109 303L110 302ZM188 319Q163 319 142 307T106 272T83 222T74 160Q74 91 105 49T187 6Q212 6 232 17T266 50T288 99T296 162Q296 196 290 224T270 274T236 307T188 319Z"  />
<glyph unicode="7" horiz-adv-x="372" d="M101 0L289 529H55V549H308V525L124 0H101Z"  />
<glyph unicode="8" horiz-adv-x="372" d="M185 543Q139 543 114 510T89 425Q89 401 96 379T115 340T145 313T185 303Q207 303 225 313T256 340T276 379T283 425Q283 476 257 509T185 543ZM185 284Q136 284 105 245T74 145Q74 116 81 91T103 47T138 17T185 6Q212 6 233 17T268 46T290 90T298 145Q298 206 267 245T185 284ZM142 296Q104 315 86 349T67 427Q67 485 98 524T185 563Q244 563 274 524T305 427Q305 384 287 348T231 295V293Q276 276 298 238T320 145Q320 73 284 30T185 -14Q123 -14 88 29T52 145Q52 199 74 238T142 294V296Z"  />
<glyph unicode="9" horiz-adv-x="372" d="M264 269Q248 252 227 243T181 234Q151 234 128 246T89 280T65 331T56 396Q56 430 64 460T89 513T130 549T187 563Q218 563 242 551T283 516T308 464T317 399Q317 371 310 334T282 253L167 0H142L267 268L264 269ZM187 542Q162 542 142 531T108 501T86 454T78 396Q78 332 106 293T187 253Q210 253 230 264T264 295T287 341T295 398Q295 462 267 502T187 542Z"  />
<glyph unicode=":" horiz-adv-x="240" d="M120 1Q111 1 104 8T97 27Q97 38 104 45T120 52Q129 52 136 45T143 27Q143 15 136 8T120 1ZM120 430Q111 430 104 437T97 456Q97 467 104 474T120 481Q129 481 136 474T143 456Q143 444 136 437T120 430Z"  />
<glyph unicode=";" horiz-adv-x="240" d="M120 430Q111 430 104 437T97 456Q97 467 104 474T120 481Q129 481 136 474T143 456Q143 444 136 437T120 430ZM74 -138H57L114 90H138L74 -138Z"  />
<glyph unicode="&lt;" horiz-adv-x="666" d="M100 291V315L566 539V519L112 303L566 87V67L100 291Z"  />
<glyph unicode="=" horiz-adv-x="666" d="M100 380V399H566V380H100ZM100 209V228H566V209H100Z"  />
<glyph unicode="&gt;" horiz-adv-x="666" d="M100 87L554 303L100 519V539L566 315V291L100 67V87Z"  />
<glyph unicode="?" horiz-adv-x="290" d="M204 307Q189 291 180 278T165 251T157 223T155 190V153H133V197Q133 223 142 250T176 307Q190 323 201 336T220 362T232 392T236 432Q236 485 214 513T154 541Q114 541 92 513T62 437L40 441Q48 499 78 531T156 563Q206 563 232 529T259 433Q259 408 255 390T242 357T224 331T204 307ZM148 -5Q140 -5 134 1T127 17Q127 28 133 34T148 40Q156 40 162 34T169 17Q169 8 163 2T148 -5Z"  />
<glyph unicode="@" horiz-adv-x="640" d="M602 415Q602 364 592 318T563 237T516 181T452 160Q419 160 402 181T391 252H390Q384 237 376 221T356 192T326 169T286 160Q259 160 240 171T210 200T194 241T189 287Q189 331 198 378T227 464T276 528T345 553Q386 553 406 529T431 462H435L453 535H471L415 298Q411 284 409 267T406 238Q406 206 417 193T452 180Q485 180 509 201T549 257T573 333T581 415Q581 478 567 531T523 624T449 686T343 708Q278 708 227 679T140 600T85 486T66 352Q66 279 82 215T132 103T216 28T336 0Q371 0 402 9T461 35T510 71T548 115L564 102Q547 78 524 56T472 17T409 -10T336 -20Q262 -20 208 9T117 88T63 206T45 352Q45 430 66 498T127 618T222 698T343 728Q409 728 458 705T539 639T586 540T602 415ZM420 432Q420 452 416 470T404 503T381 525T345 533Q310 533 285 509T244 449T219 369T211 286Q211 242 229 211T292 180Q314 180 332 194T364 230T389 281T406 338T416 391T420 432Z"  />
<glyph unicode="A" horiz-adv-x="422" d="M337 202H88L34 0H12L195 708H233L410 0H388L337 202ZM93 222H332L216 693H212L93 222Z"  />
<glyph unicode="B" horiz-adv-x="454" d="M410 189Q410 132 394 96T354 38T300 9T245 0H89V708H226Q254 708 282 700T334 672T372 620T387 540Q387 502 378 474T353 426T319 394T281 376V374Q300 371 322 360T364 326T397 270T410 189ZM365 538Q365 581 353 610T322 656T277 680T223 688H111V383H226Q251 383 276 392T321 419T353 467T365 538ZM388 186Q388 234 375 268T340 323T294 353T245 363H111V20H238Q271 20 298 29T346 59T377 110T388 186Z"  />
<glyph unicode="C" horiz-adv-x="461" d="M441 91Q412 32 368 8T281 -16Q226 -16 185 12T115 90T73 207T58 354Q58 433 72 501T115 618T184 696T281 724Q321 724 362 703T431 631L413 620Q388 665 353 684T281 704Q230 704 192 677T130 602T93 491T80 354Q80 281 92 218T130 107T193 32T281 4Q320 4 359 28T423 102L441 91H441Z"  />
<glyph unicode="D" horiz-adv-x="512" d="M454 354Q454 264 435 197T384 87T308 22T215 0H89V708H216Q265 708 308 687T384 621T435 511T454 354ZM111 688V20H212Q258 20 298 40T368 101T415 205T432 354Q432 440 415 503T368 607T298 668T212 688H111Z"  />
<glyph unicode="E" horiz-adv-x="395" d="M89 0V708H344V688H111V377H330V357H111V20H351V0H89Z"  />
<glyph unicode="F" horiz-adv-x="372" d="M111 688V377H323V357H111V0H89V708H339V688H111Z"  />
<glyph unicode="G" horiz-adv-x="520" d="M80 355Q80 277 93 213T134 103T200 32T291 7Q370 7 420 55V344H301V364H442V46Q417 21 378 4T291 -13Q235 -13 192 12T119 86T74 202T58 355Q58 434 72 501T115 618T184 696T281 724Q321 724 362 703T431 631L413 620Q388 665 353 684T281 704Q230 704 192 677T130 602T93 492T80 355Z"  />
<glyph unicode="H" horiz-adv-x="550" d="M439 0V357H111V0H89V708H111V376H439V708H461V0H439Z"  />
<glyph unicode="I" horiz-adv-x="200" d="M89 0V708H111V0H89Z"  />
<glyph unicode="J" horiz-adv-x="340" d="M255 194Q255 146 249 107T227 41T187 -1T123 -16Q72 -16 42 14T2 94L22 99Q30 56 55 30T123 4Q187 4 210 56T233 204V708H255V194H255Z"  />
<glyph unicode="K" horiz-adv-x="436" d="M112 383L376 708H403L137 382L423 0H395L112 381H111V0H89V708H111V383H112Z"  />
<glyph unicode="L" horiz-adv-x="320" d="M89 0V708H111V21H318V0H89Z"  />
<glyph unicode="M" horiz-adv-x="680" d="M569 0V684H567L353 0H326L113 684H111V0H89V708H128L339 26H341L552 708H591V0H569Z"  />
<glyph unicode="N" horiz-adv-x="535" d="M411 0L113 682H111V0H89V708H125L422 27H424V708H446V0H411Z"  />
<glyph unicode="O" horiz-adv-x="544" d="M486 354Q486 273 472 205T430 88T363 12T272 -16Q221 -16 182 11T115 88T73 205T58 354Q58 435 71 503T112 620T179 696T272 724Q323 724 362 697T429 620T471 503T486 354ZM464 354Q464 427 452 491T415 602T355 676T272 704Q223 704 187 677T127 602T92 491T80 354Q80 281 91 218T127 107T187 32T272 4Q320 4 356 31T416 106T452 217T464 354Z"  />
<glyph unicode="P" horiz-adv-x="425" d="M387 532Q387 488 375 454T343 396T294 360T234 347H111V0H89V708H228Q255 708 283 700T334 671T372 617T387 532ZM365 532Q365 575 354 604T323 652T281 679T235 688H111V368H238Q261 368 284 377T325 407T354 458T365 532Z"  />
<glyph unicode="Q" horiz-adv-x="544" d="M491 361Q491 302 481 247T453 147T407 70T343 22V20H507V0H273Q227 0 188 25T120 98T75 212T58 361Q58 441 73 507T117 622T186 697T274 724Q323 724 363 697T431 622T475 507T491 361ZM469 361Q469 432 456 494T417 603T356 677T274 704Q229 704 193 678T132 605T94 496T80 361Q80 290 93 228T132 120T193 47T275 20Q321 20 357 48T418 124T456 233T469 361Z"  />
<glyph unicode="R" horiz-adv-x="440" d="M372 0L223 357H111V0H89V708H228Q254 708 283 701T336 674T376 621T392 535Q392 486 379 453T344 398T297 368T246 358L397 0H372ZM371 535Q371 579 359 608T326 655T278 680T223 688H111V377H230Q299 377 335 420T371 535Z"  />
<glyph unicode="S" horiz-adv-x="420" d="M366 166Q366 122 354 88T319 31T269 -4T209 -16Q158 -16 119 6T54 71L72 84Q96 44 133 24T208 4Q235 4 259 15T302 46T332 97T344 167Q344 203 332 231T301 280T257 318T209 346Q181 360 155 377T108 418T76 473T63 545Q63 589 76 622T111 678T162 712T223 724Q264 724 298 708T355 652L339 639Q317 676 288 690T222 704Q197 704 173 695T129 666T97 616T85 543Q85 506 96 479T125 431T165 396T210 370Q241 354 269 336T318 293T353 238T366 166Z"  />
<glyph unicode="T" horiz-adv-x="302" d="M162 688V0H140V688H0V708H302V688H162Z"  />
<glyph unicode="U" horiz-adv-x="534" d="M449 259Q449 201 440 151T410 63T354 5T267 -16Q214 -16 179 5T123 63T94 150T85 259V708H107V270Q107 222 112 175T135 89T183 28T267 4Q318 4 349 27T398 87T421 172T427 270V708H449V259H449Z"  />
<glyph unicode="V" horiz-adv-x="412" d="M220 0H189L12 708H34L204 20H206L378 708H400L220 0Z"  />
<glyph unicode="W" horiz-adv-x="694" d="M523 0H486L346 683H345L208 0H171L23 708H45L188 20H190L329 708H362L504 20H506L649 708H671L523 0Z"  />
<glyph unicode="X" horiz-adv-x="426" d="M378 0L213 352L47 0H23L200 371L40 708H63L213 392L362 708H386L226 371L403 0H378Z"  />
<glyph unicode="Y" d="M201 310V0H180V310L7 708H30L191 336L353 708H377L201 310Z"  />
<glyph unicode="Z" horiz-adv-x="364" d="M37 0V24L311 688H41V708H331V681L59 20H336V0H37Z"  />
<glyph unicode="[" horiz-adv-x="230" d="M55 -156V732H180V713H77V-137H180V-156H55Z"  />
<glyph unicode="\" horiz-adv-x="300" d="M72 737L247 -27L227 -32L53 732L72 737Z"  />
<glyph unicode="]" horiz-adv-x="230" d="M50 -137H153V713H50V732H175V-156H50V-137Z"  />
<glyph unicode="^" horiz-adv-x="666" d="M321 708H345L569 242H549L333 696L117 242H97L321 708Z"  />
<glyph unicode="_" horiz-adv-x="500" d="M0 -114V-94H500V-114H0Z"  />
<glyph unicode="`" horiz-adv-x="200" d="M42 763L135 619H118L18 763H42Z"  />
<glyph unicode="a" horiz-adv-x="343" d="M266 156H78L38 0H16L158 549H191L327 0H305L266 156ZM173 533L83 176H261L175 533H173Z"  />
<glyph unicode="b" horiz-adv-x="390" d="M108 529V300H192Q211 300 229 306T262 327T286 362T295 415Q295 447 287 469T264 504T230 523T190 529H108ZM108 279V20H201Q250 20 281 50T313 146Q313 182 303 207T278 249T243 272T207 279H108ZM239 291Q255 287 272 277T303 250T326 208T335 148Q335 104 323 75T292 30T251 7T207 0H86V549H192Q216 549 238 542T278 520T306 479T317 416Q317 364 294 333T239 293V291Z"  />
<glyph unicode="c" horiz-adv-x="377" d="M228 -14Q185 -14 153 8T100 70T69 161T58 274Q58 335 69 387T101 479T155 540T230 563Q261 563 293 547T347 488L329 476Q309 511 284 526T230 542Q192 542 164 521T118 464T90 379T80 274Q80 218 89 170T118 85T165 28T230 7Q261 7 289 25T336 83L353 72Q334 37 305 12T228 -14Z"  />
<glyph unicode="d" horiz-adv-x="427" d="M86 0V549H185Q224 549 257 532T315 481T354 395T369 274Q369 204 355 153T316 67T258 17T185 0H86ZM108 529V20H182Q216 20 246 35T298 81T334 160T347 274Q347 340 334 388T299 467T246 514T182 529H108Z"  />
<glyph unicode="e" horiz-adv-x="329" d="M86 549H286V529H108V295H275V275H108V20H291V0H86V549Z"  />
<glyph unicode="f" horiz-adv-x="315" d="M108 295H269V275H108V0H86V549H282V529H108V295Z"  />
<glyph unicode="g" horiz-adv-x="424" d="M238 -14Q195 -14 162 6T105 65T70 156T58 275Q58 335 69 387T101 479T155 540T231 563Q262 563 294 547T348 488L330 476Q310 511 284 526T231 542Q193 542 165 521T118 464T90 380T80 275Q80 215 90 166T121 82T170 27T238 7Q297 7 332 42V261H242V281H354V33Q336 13 306 0T238 -14Z"  />
<glyph unicode="h" horiz-adv-x="460" d="M352 274H108V0H86V549H108V294H352V549H374V0H352V274Z"  />
<glyph unicode="i" horiz-adv-x="194" d="M86 549H108V0H86V549Z"  />
<glyph unicode="j" horiz-adv-x="275" d="M95 -14Q55 -14 32 10T0 75L21 81Q26 46 45 27T95 7Q142 7 159 45T176 157V549H198V150Q198 113 193 83T177 32T145 -2T95 -14Z"  />
<glyph unicode="k" horiz-adv-x="355" d="M112 304L307 549H334L129 296L348 0H320L111 287H108V0H86V549H108V304H112Z"  />
<glyph unicode="l" horiz-adv-x="271" d="M86 549H108V20H265V0H86V549Z"  />
<glyph unicode="m" horiz-adv-x="559" d="M281 28L436 549H473V0H451V517H448L292 0H266L111 517H108V0H86V549H125L278 28H281Z"  />
<glyph unicode="n" horiz-adv-x="449" d="M341 549H363V0H329L111 515H108V0H86V549H121L338 33H341V549Z"  />
<glyph unicode="o" horiz-adv-x="446" d="M223 -14Q183 -14 153 7T101 67T69 159T58 274Q58 336 68 389T99 480T151 541T223 563Q263 563 293 541T345 481T377 389T388 274Q388 212 377 159T345 68T294 8T223 -14ZM223 543Q187 543 160 522T116 465T89 379T80 274Q80 218 89 169T115 84T160 27T223 6Q258 6 285 27T330 84T357 169T366 274Q366 330 357 379T329 464T285 522T223 543Z"  />
<glyph unicode="p" horiz-adv-x="356" d="M108 266V0H86V549H195Q216 549 237 543T277 520T306 478T318 411Q318 342 284 304T199 266H108ZM108 529V286H196Q215 286 233 293T265 316T287 355T296 411Q296 443 288 465T265 502T231 522T192 529H108Z"  />
<glyph unicode="q" horiz-adv-x="446" d="M287 21H404V0H224Q188 0 158 20T106 77T71 165T58 280Q58 341 70 393T103 482T155 541T224 563Q262 563 293 542T345 482T379 392T391 280Q391 236 384 196T364 121T331 62T287 23V21ZM224 543Q191 543 165 523T119 467T90 384T80 280Q80 226 90 179T119 96T165 41T225 21Q259 21 286 42T331 100T359 183T369 280Q369 335 359 383T330 466T284 522T224 543Z"  />
<glyph unicode="r" horiz-adv-x="372" d="M191 274H108V0H86V549H195Q215 549 237 543T279 522T310 481T323 413Q323 376 312 350T285 308T249 284T214 275L336 0H312L191 274ZM108 529V294H196Q247 294 274 326T301 413Q301 446 292 468T268 503T232 523T191 529H108Z"  />
<glyph unicode="s" horiz-adv-x="336" d="M163 -10Q123 -10 92 8T40 60L58 74Q76 42 104 26T162 10Q206 10 236 42T266 133Q266 162 257 182T233 218T199 244T160 268Q140 280 121 292T86 321T61 361T51 418Q51 452 61 478T89 523T129 550T177 559Q247 559 281 501L264 487Q249 516 227 528T175 540Q157 540 139 533T106 510T82 472T73 417Q73 390 81 370T103 335T133 309T167 289Q190 277 211 263T250 231T277 189T288 133Q288 98 278 72T250 27T211 0T163 -10Z"  />
<glyph unicode="t" horiz-adv-x="248" d="M134 0H112V529H6V549H242V529H134V0Z"  />
<glyph unicode="u" horiz-adv-x="436" d="M218 -14Q177 -14 150 2T106 48T84 115T77 199V549H99V208Q99 171 103 135T120 71T156 25T218 7Q256 7 279 24T315 69T332 133T337 208V549H359V199Q359 154 353 116T330 48T286 3T218 -14Z"  />
<glyph unicode="v" horiz-adv-x="331" d="M295 549H317L179 0H150L14 549H37L163 28H166L295 549Z"  />
<glyph unicode="w" horiz-adv-x="555" d="M418 0H386L277 519H276L169 0H136L21 549H43L152 25H154L261 549H292L402 25H404L512 549H534L418 0Z"  />
<glyph unicode="x" horiz-adv-x="330" d="M165 266L41 0H16L152 287L29 549H53L165 310L277 549H301L178 287L314 0H288L165 266Z"  />
<glyph unicode="y" horiz-adv-x="306" d="M162 0H140V240L8 549H31L152 264L275 549H298L162 240V0Z"  />
<glyph unicode="z" horiz-adv-x="303" d="M35 22L244 529H42V549H265V524L58 20H268V0H35V22Z"  />
<glyph unicode="{" horiz-adv-x="230" d="M0 297Q12 297 23 302T41 319T53 354T58 412V607Q58 678 79 705T140 732H180V713H140Q103 713 92 686T80 607V411Q80 348 63 321T24 289V287Q45 282 62 255T80 165V-31Q80 -82 91 -109T140 -137H180V-156H140Q101 -156 80 -129T58 -31V164Q58 199 54 221T42 256T23 274T0 279V297Z"  />
<glyph unicode="|" horiz-adv-x="222" d="M121 750V-250H99V750H121Z"  />
<glyph unicode="}" horiz-adv-x="230" d="M230 279Q218 279 207 274T189 257T177 222T172 164V-31Q172 -102 151 -129T90 -156H50V-137H90Q127 -137 138 -110T150 -31V165Q150 228 167 255T206 287V289Q185 294 168 321T150 411V607Q150 658 139 685T90 713H50V732H90Q129 732 150 705T172 607V412Q172 377 176 355T188 320T207 302T230 297V279H230Z"  />
<glyph unicode="~" horiz-adv-x="666" d="M93 264Q125 319 157 338T225 357Q253 357 275 349T325 322Q369 291 396 282T444 272Q484 272 511 297T560 357L575 341Q545 294 512 273T444 251Q410 251 389 260T343 286Q321 301 305 310T277 325T253 333T227 336Q186 336 159 313T110 250L93 264H93Z"  />
<glyph unicode="&#xA0;" horiz-adv-x="180" />
<glyph unicode="&#xA1;" horiz-adv-x="230" d="M124 400V0H102V400H124ZM115 554Q123 554 129 548T136 532Q136 521 130 515T115 509Q107 509 101 515T94 532Q94 541 100 547T115 554Z"  />
<glyph unicode="&#xA2;" horiz-adv-x="372" d="M247 11Q282 12 304 27T343 66L357 51Q339 23 312 8T247 -9V-72H225V-9Q186 -6 157 13T108 66T78 144T68 242Q68 294 78 339T107 418T156 472T225 495V563H247V495Q287 494 311 480T353 446L337 430Q326 447 304 460T247 475V11ZM225 475Q188 472 162 452T120 401T97 328T90 242Q90 197 97 157T120 85T162 34T225 11V475Z"  />
<glyph unicode="&#xA3;" horiz-adv-x="372" d="M311 513Q300 526 283 534T243 543Q213 543 195 531T165 498T150 451T146 396V296H257V276H146V20H309V0H44V20H123V276H53V296H123V398Q123 432 129 462T150 514T187 550T243 563Q271 563 291 553T326 529L311 513H311Z"  />
<glyph unicode="&#xA4;" horiz-adv-x="440" d="M330 117Q309 91 281 77T220 62Q154 62 110 118L45 30L35 45L99 132Q80 161 70 200T59 287Q59 332 69 369T97 436L35 519L46 534L107 450Q150 509 220 509Q254 509 282 494T332 451L393 534L404 519L343 437Q381 378 381 287Q381 239 371 200T340 130L404 45L394 30L330 117ZM363 287Q363 329 354 366T326 432T281 476T220 492Q186 492 160 476T115 432T88 367T78 287Q78 244 87 207T115 141T159 96T220 79Q254 79 280 95T325 140T353 206T363 287Z"  />
<glyph unicode="&#xA5;" horiz-adv-x="372" d="M310 284V264H197V169H310V149H197V0H175V149H61V169H175V264H61V284H165L39 549H65L187 282L310 549H333L208 284H310Z"  />
<glyph unicode="&#xA6;" horiz-adv-x="222" d="M103 344V675H120V344H103ZM103 -175V156H120V-175H103Z"  />
<glyph unicode="&#xA7;" horiz-adv-x="460" d="M266 147Q311 126 338 96T365 15Q365 -21 353 -49T318 -95T268 -124T207 -134Q160 -134 123 -116T59 -66L74 -49Q124 -114 209 -114Q236 -114 260 -106T303 -82T332 -43T343 13Q343 40 333 60T307 96T269 123T223 146L189 161Q159 174 137 187T99 217T75 256T67 309Q67 340 78 364T107 405T146 432T187 447Q165 458 147 469T117 496T98 531T91 581Q91 616 103 643T137 689T187 718T248 728Q290 728 324 713T380 665L365 650Q348 679 316 694T245 709Q221 709 197 701T154 677T124 636T112 578Q112 548 122 528T148 493T185 469T229 448L257 435Q288 421 313 407T354 375T380 336T389 287Q389 255 379 231T351 189T311 161T266 147ZM243 159Q267 161 289 169T329 193T357 231T368 285Q368 312 358 332T332 369T293 396T246 419L209 435Q188 432 167 423T129 399T100 360T89 306Q89 277 99 257T125 221T162 196T204 176L243 159Z"  />
<glyph unicode="&#xA8;" horiz-adv-x="200" d="M38 688Q29 688 22 695T15 714Q15 725 22 732T38 739Q47 739 54 732T61 714Q61 702 54 695T38 688ZM162 688Q153 688 146 695T139 714Q139 725 146 732T162 739Q171 739 178 732T185 714Q185 702 178 695T162 688Z"  />
<glyph unicode="&#xA9;" horiz-adv-x="640" d="M320 -20Q257 -20 205 6T115 81T57 199T36 355Q36 441 56 510T114 628T204 703T320 730Q383 730 435 704T524 629T583 511T604 355Q604 269 583 200T525 81T435 6T320 -20ZM320 712Q259 712 211 685T128 610T76 497T58 355Q58 279 76 214T128 100T210 25T320 -2Q381 -2 429 25T512 100T564 213T582 355Q582 431 564 496T512 610T430 685T320 712ZM419 191Q386 138 324 138Q291 138 266 154T224 199T198 269T189 357Q189 405 197 445T223 514T266 560T325 576Q357 576 380 564T417 528L402 514Q390 536 370 545T325 555Q296 555 275 540T239 498T218 435T211 357Q211 316 218 280T239 218T274 176T325 160Q379 160 405 207L419 191Z"  />
<glyph unicode="&#xAA;" horiz-adv-x="350" d="M243 510H108L79 425H59L163 728H192L292 425H271L243 510ZM176 712L113 527H239L178 712H176Z"  />
<glyph unicode="&#xAB;" horiz-adv-x="300" d="M239 434L255 424L167 237L255 50L239 41L145 237L239 434ZM139 434L155 424L67 237L155 50L139 41L45 237L139 434Z"  />
<glyph unicode="&#xAC;" horiz-adv-x="666" d="M551 134V380H94V399H573V134H551Z"  />
<glyph unicode="&#xAD;" horiz-adv-x="216" d="M43 244V264H173V244H43Z"  />
<glyph unicode="&#xAE;" horiz-adv-x="480" d="M240 274Q202 274 171 289T118 334T83 405T70 499Q70 551 82 592T117 663T171 708T240 724Q278 724 309 708T362 663T397 593T410 499Q410 447 398 406T363 335T309 290T240 274ZM240 706Q205 706 178 691T131 647T101 582T90 499Q90 454 100 417T130 351T177 308T240 292Q275 292 302 307T349 351T379 416T390 499Q390 544 380 581T350 647T303 690T240 706ZM295 375L235 489H199V375H179V626H243Q273 626 291 610T310 560Q310 528 294 512T255 492L319 375H295ZM290 559Q290 589 274 598T240 608H199V506H230Q256 506 273 517T290 559Z"  />
<glyph unicode="&#xAF;" horiz-adv-x="200" d="M-4 676V696H204V676H-4Z"  />
<glyph unicode="&#xB0;" horiz-adv-x="320" d="M160 424Q133 424 113 436T78 469T57 516T49 572Q49 600 56 626T78 673T112 706T160 718Q186 718 206 706T241 674T262 627T270 572Q270 543 263 517T241 470T207 437T160 424ZM160 700Q140 700 124 690T96 663T78 622T71 572Q71 515 96 479T160 442Q198 442 223 478T249 572Q249 599 242 622T223 662T195 690T160 700Z"  />
<glyph unicode="&#xB1;" horiz-adv-x="666" d="M342 342V150H320V342H94V362H319V558H341V362H573V342H342ZM98 48V68H569V48H98Z"  />
<glyph unicode="&#xB2;" horiz-adv-x="300" d="M58 293V316L176 489Q195 517 210 546T225 618Q225 658 205 679T155 700Q127 700 110 682T86 637L65 641Q76 682 101 701T155 720Q200 720 223 693T247 620Q247 575 231 541T189 470L81 313H250V293H58Z"  />
<glyph unicode="&#xB3;" horiz-adv-x="300" d="M253 399Q253 339 226 309T153 278Q118 278 93 296T57 346L75 355Q87 323 109 310T153 296Q193 296 212 324T231 400Q231 425 224 444T204 475T176 494T143 501H130V519H142Q163 519 178 527T202 548T216 578T220 614Q220 656 201 679T153 703Q131 703 115 691T89 660L74 671Q88 694 107 707T153 720Q199 720 220 690T241 614Q241 569 221 543T169 511V509Q208 504 230 475T253 399Z"  />
<glyph unicode="&#xB4;" horiz-adv-x="200" d="M82 619H65L158 763H182L82 619Z"  />
<glyph unicode="&#xB5;" horiz-adv-x="556" d="M116 460V184Q116 155 122 124T144 66T188 23T260 5Q298 5 331 20T389 65T428 135T443 230V460H465V116Q465 105 465 89T466 57T467 25T468 0H444V121H442Q431 89 413 64T370 21T318 -5T260 -14Q203 -14 168 10T116 72V-228H94V460H116Z"  />
<glyph unicode="&#xB6;" horiz-adv-x="600" d="M467 -126V691H312V-126H290V341Q240 341 201 355T134 393T91 450T76 519Q76 613 134 660T298 708H489V-126H467Z"  />
<glyph unicode="&#xB7;" horiz-adv-x="190" d="M95 231Q86 231 79 238T72 257Q72 268 79 275T95 282Q104 282 111 275T118 257Q118 245 111 238T95 231Z"  />
<glyph unicode="&#xB8;" horiz-adv-x="200" d="M187 -146Q187 -170 177 -185T151 -210T119 -222T86 -226Q69 -226 47 -221T5 -206L10 -189Q27 -199 49 -203T87 -207Q100 -207 114 -205T140 -196T159 -177T167 -146Q167 -115 146 -105T103 -95Q91 -95 72 -99T41 -110L31 -101L93 0H113L60 -86Q83 -78 109 -78Q122 -78 136 -81T161 -92T180 -113T187 -146Z"  />
<glyph unicode="&#xB9;" horiz-adv-x="300" d="M164 288V686L93 640L81 656L165 708H186V288H164Z"  />
<glyph unicode="&#xBA;" horiz-adv-x="350" d="M292 573Q292 540 284 513T260 466T223 435T175 424Q149 424 128 435T91 466T67 513T58 573Q58 606 66 633T90 679T127 710T175 721Q201 721 222 710T259 680T283 633T292 573ZM78 573Q78 546 84 522T103 480T133 452T175 441Q199 441 217 451T247 480T265 522T272 573Q272 600 266 623T247 665T217 693T175 703Q151 703 133 693T103 665T85 624T78 573Z"  />
<glyph unicode="&#xBB;" horiz-adv-x="300" d="M61 41L45 50L133 237L45 424L61 434L155 237L61 41ZM161 41L145 50L233 237L145 424L161 434L255 237L161 41Z"  />
<glyph unicode="&#xBC;" horiz-adv-x="700" d="M413 107V129L560 425H591V125H658V107H591V0H571V107H413ZM571 125V402H568L433 125H571ZM225 -23L205 -16L469 736L489 729L225 -23ZM164 288V686L93 640L81 656L165 708H186V288H164Z"  />
<glyph unicode="&#xBD;" horiz-adv-x="700" d="M225 -23L205 -16L469 736L489 729L225 -23ZM458 0V23L576 196Q595 224 610 253T625 325Q625 365 605 386T555 407Q527 407 510 389T486 344L465 348Q476 389 501 408T555 427Q600 427 623 400T647 327Q647 282 631 248T589 177L481 20H650V0H458ZM164 288V686L93 640L81 656L165 708H186V288H164Z"  />
<glyph unicode="&#xBE;" horiz-adv-x="700" d="M413 107V129L560 425H591V125H658V107H591V0H571V107H413ZM571 125V402H568L433 125H571ZM225 -23L205 -16L469 736L489 729L225 -23ZM253 399Q253 339 226 309T153 278Q118 278 93 296T57 346L75 355Q87 323 109 310T153 296Q193 296 212 324T231 400Q231 425 224 444T204 475T176 494T143 501H130V519H142Q163 519 178 527T202 548T216 578T220 614Q220 656 201 679T153 703Q131 703 115 691T89 660L74 671Q88 694 107 707T153 720Q199 720 220 690T241 614Q241 569 221 543T169 511V509Q208 504 230 475T253 399Z"  />
<glyph unicode="&#xBF;" horiz-adv-x="290" d="M96 242Q111 258 120 271T135 298T143 326T145 359V396H167V352Q167 326 158 299T124 242Q110 226 99 213T80 187T68 157T64 117Q64 64 86 36T146 8Q186 8 208 36T238 112L260 108Q252 50 222 18T144 -14Q94 -14 68 20T41 116Q41 165 58 192T96 242ZM152 554Q160 554 166 548T173 532Q173 521 167 515T152 509Q144 509 138 515T131 532Q131 541 137 547T152 554Z"  />
<glyph unicode="&#xC0;" horiz-adv-x="422" d="M337 202H88L34 0H12L195 708H233L410 0H388L337 202ZM93 222H332L216 693H212L93 222ZM139 908L232 764H215L115 908H139Z"  />
<glyph unicode="&#xC1;" horiz-adv-x="422" d="M337 202H88L34 0H12L195 708H233L410 0H388L337 202ZM93 222H332L216 693H212L93 222ZM213 764H196L289 908H313L213 764Z"  />
<glyph unicode="&#xC2;" horiz-adv-x="422" d="M337 202H88L34 0H12L195 708H233L410 0H388L337 202ZM93 222H332L216 693H212L93 222ZM227 908L319 764H299L214 896L129 764H109L201 908H227Z"  />
<glyph unicode="&#xC3;" horiz-adv-x="422" d="M337 202H88L34 0H12L195 708H233L410 0H388L337 202ZM93 222H332L216 693H212L93 222ZM217 838Q229 830 237 825T250 818T260 815T270 814Q286 814 293 825T305 862H320Q317 826 303 811T270 795Q256 795 244 800T212 819Q189 835 179 839T159 843Q143 843 136 830T124 792H109Q112 828 126 845T159 862Q173 862 185 857T217 838Z"  />
<glyph unicode="&#xC4;" horiz-adv-x="422" d="M337 202H88L34 0H12L195 708H233L410 0H388L337 202ZM93 222H332L216 693H212L93 222ZM152 833Q143 833 136 840T129 859Q129 870 136 877T152 884Q161 884 168 877T175 859Q175 847 168 840T152 833ZM276 833Q267 833 260 840T253 859Q253 870 260 877T276 884Q285 884 292 877T299 859Q299 847 292 840T276 833Z"  />
<glyph unicode="&#xC5;" horiz-adv-x="422" d="M337 202H88L34 0H12L195 708H233L410 0H388L337 202ZM93 222H332L216 693H212L93 222ZM300 850Q300 809 276 782T214 755Q177 755 153 782T128 850Q128 891 152 918T214 945Q251 945 275 918T300 850ZM281 850Q281 882 263 905T214 928Q183 928 165 905T147 850Q147 818 165 795T214 772Q245 772 263 795T281 850Z"  />
<glyph unicode="&#xC6;" horiz-adv-x="583" d="M532 688H315V377H518V357H315V20H539V0H293V197H97L23 0H0L267 708H532V688ZM293 688H281L104 217H293V688Z"  />
<glyph unicode="&#xC7;" horiz-adv-x="461" d="M364 -146Q364 -170 354 -185T328 -210T296 -222T263 -226Q246 -226 224 -221T182 -206L187 -189Q204 -199 226 -203T264 -207Q277 -207 291 -205T317 -196T336 -177T344 -146Q344 -115 323 -105T280 -95Q268 -95 249 -99T218 -110L208 -101L261 -15Q211 -10 173 20T110 100T71 214T58 354Q58 433 72 501T115 618T184 696T281 724Q321 724 362 703T431 631L413 620Q388 665 353 684T281 704Q230 704 192 677T130 602T93 491T80 354Q80 281 92 218T130 107T193 32T281 4Q320 4 359 28T423 102L441 91Q412 32 368 8T281 -16H280L237 -86Q260 -78 286 -78Q299 -78 313 -81T338 -92T357 -113T364 -146Z"  />
<glyph unicode="&#xC8;" horiz-adv-x="395" d="M89 0V708H344V688H111V377H330V357H111V20H351V0H89ZM146 908L239 764H222L122 908H146Z"  />
<glyph unicode="&#xC9;" horiz-adv-x="395" d="M89 0V708H344V688H111V377H330V357H111V20H351V0H89ZM212 764H195L288 908H312L212 764Z"  />
<glyph unicode="&#xCA;" horiz-adv-x="395" d="M89 0V708H344V688H111V377H330V357H111V20H351V0H89ZM230 908L322 764H302L217 896L132 764H112L204 908H230Z"  />
<glyph unicode="&#xCB;" horiz-adv-x="395" d="M89 0V708H344V688H111V377H330V357H111V20H351V0H89ZM153 833Q144 833 137 840T130 859Q130 870 137 877T153 884Q162 884 169 877T176 859Q176 847 169 840T153 833ZM277 833Q268 833 261 840T254 859Q254 870 261 877T277 884Q286 884 293 877T300 859Q300 847 293 840T277 833Z"  />
<glyph unicode="&#xCC;" horiz-adv-x="200" d="M89 0V708H111V0H89ZM18 908L111 764H94L-6 908H18Z"  />
<glyph unicode="&#xCD;" horiz-adv-x="200" d="M89 0V708H111V0H89ZM106 764H89L182 908H206L106 764Z"  />
<glyph unicode="&#xCE;" horiz-adv-x="200" d="M89 0V708H111V0H89ZM113 908L205 764H185L100 896L15 764H-5L87 908H113Z"  />
<glyph unicode="&#xCF;" horiz-adv-x="200" d="M89 0V708H111V0H89ZM38 833Q29 833 22 840T15 859Q15 870 22 877T38 884Q47 884 54 877T61 859Q61 847 54 840T38 833ZM162 833Q153 833 146 840T139 859Q139 870 146 877T162 884Q171 884 178 877T185 859Q185 847 178 840T162 833Z"  />
<glyph unicode="&#xD0;" horiz-adv-x="512" d="M18 358V378H89V708H216Q265 708 308 687T384 621T435 511T454 354Q454 264 435 197T384 87T308 22T215 0H89V358H18ZM258 378V358H111V20H212Q258 20 298 40T368 101T415 205T432 354Q432 440 415 503T368 607T298 668T212 688H111V378H258Z"  />
<glyph unicode="&#xD1;" horiz-adv-x="535" d="M411 0L113 682H111V0H89V708H125L422 27H424V708H446V0H411ZM271 838Q283 830 291 825T304 818T314 815T324 814Q340 814 347 825T359 862H374Q371 826 357 811T324 795Q310 795 298 800T266 819Q243 835 233 839T213 843Q197 843 190 830T178 792H163Q166 828 180 845T213 862Q227 862 239 857T271 838Z"  />
<glyph unicode="&#xD2;" horiz-adv-x="544" d="M486 354Q486 273 472 205T430 88T363 12T272 -16Q221 -16 182 11T115 88T73 205T58 354Q58 435 71 503T112 620T179 696T272 724Q323 724 362 697T429 620T471 503T486 354ZM464 354Q464 427 452 491T415 602T355 676T272 704Q223 704 187 677T127 602T92 491T80 354Q80 281 91 218T127 107T187 32T272 4Q320 4 356 31T416 106T452 217T464 354ZM197 908L290 764H273L173 908H197Z"  />
<glyph unicode="&#xD3;" horiz-adv-x="544" d="M486 354Q486 273 472 205T430 88T363 12T272 -16Q221 -16 182 11T115 88T73 205T58 354Q58 435 71 503T112 620T179 696T272 724Q323 724 362 697T429 620T471 503T486 354ZM464 354Q464 427 452 491T415 602T355 676T272 704Q223 704 187 677T127 602T92 491T80 354Q80 281 91 218T127 107T187 32T272 4Q320 4 356 31T416 106T452 217T464 354ZM270 764H253L346 908H370L270 764Z"  />
<glyph unicode="&#xD4;" horiz-adv-x="544" d="M486 354Q486 273 472 205T430 88T363 12T272 -16Q221 -16 182 11T115 88T73 205T58 354Q58 435 71 503T112 620T179 696T272 724Q323 724 362 697T429 620T471 503T486 354ZM464 354Q464 427 452 491T415 602T355 676T272 704Q223 704 187 677T127 602T92 491T80 354Q80 281 91 218T127 107T187 32T272 4Q320 4 356 31T416 106T452 217T464 354ZM284 908L376 764H356L271 896L186 764H166L258 908H284Z"  />
<glyph unicode="&#xD5;" horiz-adv-x="544" d="M486 354Q486 273 472 205T430 88T363 12T272 -16Q221 -16 182 11T115 88T73 205T58 354Q58 435 71 503T112 620T179 696T272 724Q323 724 362 697T429 620T471 503T486 354ZM464 354Q464 427 452 491T415 602T355 676T272 704Q223 704 187 677T127 602T92 491T80 354Q80 281 91 218T127 107T187 32T272 4Q320 4 356 31T416 106T452 217T464 354ZM274 838Q286 830 294 825T307 818T317 815T327 814Q343 814 350 825T362 862H377Q374 826 360 811T327 795Q313 795 301 800T269 819Q246 835 236 839T216 843Q200 843 193 830T181 792H166Q169 828 183 845T216 862Q230 862 242 857T274 838Z"  />
<glyph unicode="&#xD6;" horiz-adv-x="544" d="M486 354Q486 273 472 205T430 88T363 12T272 -16Q221 -16 182 11T115 88T73 205T58 354Q58 435 71 503T112 620T179 696T272 724Q323 724 362 697T429 620T471 503T486 354ZM464 354Q464 427 452 491T415 602T355 676T272 704Q223 704 187 677T127 602T92 491T80 354Q80 281 91 218T127 107T187 32T272 4Q320 4 356 31T416 106T452 217T464 354ZM209 833Q200 833 193 840T186 859Q186 870 193 877T209 884Q218 884 225 877T232 859Q232 847 225 840T209 833ZM333 833Q324 833 317 840T310 859Q310 870 317 877T333 884Q342 884 349 877T356 859Q356 847 349 840T333 833Z"  />
<glyph unicode="&#xD7;" horiz-adv-x="666" d="M527 128L513 115L334 294L155 115L141 128L321 308L141 488L154 501L334 321L514 501L527 488L347 308L527 128Z"  />
<glyph unicode="&#xD8;" horiz-adv-x="544" d="M412 647Q448 598 467 523T486 354Q486 273 472 205T430 88T363 12T272 -16Q194 -16 141 49L110 -19L92 -11L127 67Q93 117 76 190T58 354Q58 435 71 503T112 620T179 696T272 724Q310 724 341 709T398 664L424 720L441 713L412 647ZM464 354Q464 437 449 507T402 625L150 68Q173 38 203 21T272 4Q320 4 356 31T416 106T452 217T464 354ZM80 354Q80 273 94 205T137 88L389 643Q366 672 337 688T272 704Q223 704 187 677T127 602T92 491T80 354Z"  />
<glyph unicode="&#xD9;" horiz-adv-x="534" d="M449 259Q449 201 440 151T410 63T354 5T267 -16Q214 -16 179 5T123 63T94 150T85 259V708H107V270Q107 222 112 175T135 89T183 28T267 4Q318 4 349 27T398 87T421 172T427 270V708H449V259H449ZM200 908L293 764H276L176 908H200Z"  />
<glyph unicode="&#xDA;" horiz-adv-x="534" d="M449 259Q449 201 440 151T410 63T354 5T267 -16Q214 -16 179 5T123 63T94 150T85 259V708H107V270Q107 222 112 175T135 89T183 28T267 4Q318 4 349 27T398 87T421 172T427 270V708H449V259H449ZM266 764H249L342 908H366L266 764Z"  />
<glyph unicode="&#xDB;" horiz-adv-x="534" d="M449 259Q449 201 440 151T410 63T354 5T267 -16Q214 -16 179 5T123 63T94 150T85 259V708H107V270Q107 222 112 175T135 89T183 28T267 4Q318 4 349 27T398 87T421 172T427 270V708H449V259H449ZM280 908L372 764H352L267 896L182 764H162L254 908H280Z"  />
<glyph unicode="&#xDC;" horiz-adv-x="534" d="M449 259Q449 201 440 151T410 63T354 5T267 -16Q214 -16 179 5T123 63T94 150T85 259V708H107V270Q107 222 112 175T135 89T183 28T267 4Q318 4 349 27T398 87T421 172T427 270V708H449V259H449ZM205 833Q196 833 189 840T182 859Q182 870 189 877T205 884Q214 884 221 877T228 859Q228 847 221 840T205 833ZM329 833Q320 833 313 840T306 859Q306 870 313 877T329 884Q338 884 345 877T352 859Q352 847 345 840T329 833Z"  />
<glyph unicode="&#xDD;" d="M201 310V0H180V310L7 708H30L191 336L353 708H377L201 310ZM187 764H170L263 908H287L187 764Z"  />
<glyph unicode="&#xDE;" horiz-adv-x="425" d="M379 374Q379 329 366 295T331 237T277 202T211 190H130V0H108V708H130V550H200Q232 550 264 542T321 513T363 459T379 374ZM357 374Q357 419 344 449T310 497T262 523T207 531H130V209H212Q240 209 266 218T312 247T345 298T357 374Z"  />
<glyph unicode="&#xDF;" horiz-adv-x="661" d="M163 -10Q123 -10 92 8T40 60L58 74Q76 42 104 26T162 10Q206 10 236 42T266 133Q266 162 257 182T233 218T199 244T160 268Q140 280 121 292T86 321T61 361T51 418Q51 452 61 478T89 523T129 550T177 559Q247 559 281 501L264 487Q249 516 227 528T175 540Q157 540 139 533T106 510T82 472T73 417Q73 390 81 370T103 335T133 309T167 289Q190 277 211 263T250 231T277 189T288 133Q288 98 278 72T250 27T211 0T163 -10ZM488 -10Q448 -10 417 8T365 60L383 74Q401 42 429 26T487 10Q531 10 561 42T591 133Q591 162 582 182T558 218T524 244T485 268Q465 280 446 292T411 321T386 361T376 418Q376 452 386 478T414 523T454 550T502 559Q572 559 606 501L589 487Q574 516 552 528T500 540Q482 540 464 533T431 510T407 472T398 417Q398 390 406 370T428 335T458 309T492 289Q515 277 536 263T575 231T602 189T613 133Q613 98 603 72T575 27T536 0T488 -10Z"  />
<glyph unicode="&#xE0;" horiz-adv-x="343" d="M266 156H78L38 0H16L158 549H191L327 0H305L266 156ZM173 533L83 176H261L175 533H173ZM90 763L183 619H166L66 763H90Z"  />
<glyph unicode="&#xE1;" horiz-adv-x="343" d="M266 156H78L38 0H16L158 549H191L327 0H305L266 156ZM173 533L83 176H261L175 533H173ZM176 619H159L252 763H276L176 619Z"  />
<glyph unicode="&#xE2;" horiz-adv-x="343" d="M266 156H78L38 0H16L158 549H191L327 0H305L266 156ZM173 533L83 176H261L175 533H173ZM182 763L274 619H254L169 751L84 619H64L156 763H182Z"  />
<glyph unicode="&#xE3;" horiz-adv-x="343" d="M266 156H78L38 0H16L158 549H191L327 0H305L266 156ZM173 533L83 176H261L175 533H173ZM173 693Q185 685 193 680T206 673T216 670T226 669Q242 669 249 680T261 717H276Q273 682 259 666Q246 650 226 650Q212 650 200 655T168 674Q145 690 135 694T115 698Q99 698 92 685T80 647H65Q68 683 82 700T115 717Q129 717 141 712T173 693Z"  />
<glyph unicode="&#xE4;" horiz-adv-x="343" d="M266 156H78L38 0H16L158 549H191L327 0H305L266 156ZM173 533L83 176H261L175 533H173ZM109 688Q100 688 93 695T86 714Q86 725 93 732T109 739Q118 739 125 732T132 714Q132 702 125 695T109 688ZM233 688Q224 688 217 695T210 714Q210 725 217 732T233 739Q242 739 249 732T256 714Q256 702 249 695T233 688Z"  />
<glyph unicode="&#xE5;" horiz-adv-x="343" d="M266 156H78L38 0H16L158 549H191L327 0H305L266 156ZM173 533L83 176H261L175 533H173ZM256 705Q256 664 232 637T170 610Q133 610 109 637T84 705Q84 746 108 773T170 800Q207 800 231 773T256 705ZM237 705Q237 737 219 760T170 783Q139 783 121 760T103 705Q103 673 121 650T170 627Q201 627 219 650T237 705Z"  />
<glyph unicode="&#xE6;" horiz-adv-x="455" d="M224 152H80L24 0H0L205 549H411V529H246V295H400V275H246V20H417V0H224V152ZM220 529L87 172H224V529H220Z"  />
<glyph unicode="&#xE7;" horiz-adv-x="377" d="M309 -146Q309 -170 299 -185T273 -210T241 -222T208 -226Q191 -226 169 -221T127 -206L132 -189Q149 -199 171 -203T209 -207Q222 -207 236 -205T262 -196T281 -177T289 -146Q289 -115 268 -105T225 -95Q213 -95 194 -99T163 -110L153 -101L207 -12Q169 -7 142 17T95 79T67 167T58 274Q58 335 69 387T101 479T155 540T230 563Q261 563 293 547T347 488L329 476Q309 511 284 526T230 542Q192 542 164 521T118 464T90 379T80 274Q80 218 89 170T118 85T165 28T230 7Q261 7 289 25T336 83L353 72Q334 37 305 12T228 -14H226L182 -86Q205 -78 231 -78Q244 -78 258 -81T283 -92T302 -113T309 -146Z"  />
<glyph unicode="&#xE8;" horiz-adv-x="329" d="M86 549H286V529H108V295H275V275H108V20H291V0H86V549ZM110 763L203 619H186L86 763H110Z"  />
<glyph unicode="&#xE9;" horiz-adv-x="329" d="M86 549H286V529H108V295H275V275H108V20H291V0H86V549ZM186 619H169L262 763H286L186 619Z"  />
<glyph unicode="&#xEA;" horiz-adv-x="329" d="M86 549H286V529H108V295H275V275H108V20H291V0H86V549ZM199 763L291 619H271L186 751L101 619H81L173 763H199Z"  />
<glyph unicode="&#xEB;" horiz-adv-x="329" d="M86 549H286V529H108V295H275V275H108V20H291V0H86V549ZM122 688Q113 688 106 695T99 714Q99 725 106 732T122 739Q131 739 138 732T145 714Q145 702 138 695T122 688ZM246 688Q237 688 230 695T223 714Q223 725 230 732T246 739Q255 739 262 732T269 714Q269 702 262 695T246 688Z"  />
<glyph unicode="&#xEC;" horiz-adv-x="194" d="M85 0V483H107V0H85ZM15 763L108 619H91L-9 763H15Z"  />
<glyph unicode="&#xED;" horiz-adv-x="194" d="M85 0V483H107V0H85ZM101 619H84L177 763H201L101 619Z"  />
<glyph unicode="&#xEE;" horiz-adv-x="194" d="M85 0V483H107V0H85ZM111 763L203 619H183L98 751L13 619H-7L85 763H111Z"  />
<glyph unicode="&#xEF;" horiz-adv-x="194" d="M85 0V483H107V0H85ZM36 688Q27 688 20 695T13 714Q13 725 20 732T36 739Q45 739 52 732T59 714Q59 702 52 695T36 688ZM160 688Q151 688 144 695T137 714Q137 725 144 732T160 739Q169 739 176 732T183 714Q183 702 176 695T160 688Z"  />
<glyph unicode="&#xF0;" horiz-adv-x="427" d="M23 270V290H86V549H185Q224 549 257 532T315 481T354 395T369 274Q369 204 355 153T316 67T258 17T185 0H86V270H23ZM108 20H182Q216 20 246 35T298 81T334 160T347 274Q347 340 334 388T299 467T246 514T182 529H108V290H222V270H108V20Z"  />
<glyph unicode="&#xF1;" horiz-adv-x="449" d="M341 549H363V0H329L111 515H108V0H86V549H121L338 33H341V549ZM226 693Q238 685 246 680T259 673T269 670T279 669Q295 669 302 680T314 717H329Q326 682 312 666Q299 650 279 650Q265 650 253 655T221 674Q198 690 188 694T168 698Q152 698 145 685T133 647H118Q121 683 135 700T168 717Q182 717 194 712T226 693Z"  />
<glyph unicode="&#xF2;" horiz-adv-x="446" d="M223 -14Q183 -14 153 7T101 67T69 159T58 274Q58 336 68 389T99 480T151 541T223 563Q263 563 293 541T345 481T377 389T388 274Q388 212 377 159T345 68T294 8T223 -14ZM223 543Q187 543 160 522T116 465T89 379T80 274Q80 218 89 169T115 84T160 27T223 6Q258 6 285 27T330 84T357 169T366 274Q366 330 357 379T329 464T285 522T223 543ZM150 763L243 619H226L126 763H150Z"  />
<glyph unicode="&#xF3;" horiz-adv-x="446" d="M223 -14Q183 -14 153 7T101 67T69 159T58 274Q58 336 68 389T99 480T151 541T223 563Q263 563 293 541T345 481T377 389T388 274Q388 212 377 159T345 68T294 8T223 -14ZM223 543Q187 543 160 522T116 465T89 379T80 274Q80 218 89 169T115 84T160 27T223 6Q258 6 285 27T330 84T357 169T366 274Q366 330 357 379T329 464T285 522T223 543ZM222 619H205L298 763H322L222 619Z"  />
<glyph unicode="&#xF4;" horiz-adv-x="446" d="M223 -14Q183 -14 153 7T101 67T69 159T58 274Q58 336 68 389T99 480T151 541T223 563Q263 563 293 541T345 481T377 389T388 274Q388 212 377 159T345 68T294 8T223 -14ZM223 543Q187 543 160 522T116 465T89 379T80 274Q80 218 89 169T115 84T160 27T223 6Q258 6 285 27T330 84T357 169T366 274Q366 330 357 379T329 464T285 522T223 543ZM237 763L329 619H309L224 751L139 619H119L211 763H237Z"  />
<glyph unicode="&#xF5;" horiz-adv-x="446" d="M223 -14Q183 -14 153 7T101 67T69 159T58 274Q58 336 68 389T99 480T151 541T223 563Q263 563 293 541T345 481T377 389T388 274Q388 212 377 159T345 68T294 8T223 -14ZM223 543Q187 543 160 522T116 465T89 379T80 274Q80 218 89 169T115 84T160 27T223 6Q258 6 285 27T330 84T357 169T366 274Q366 330 357 379T329 464T285 522T223 543ZM226 693Q238 685 246 680T259 673T269 670T279 669Q295 669 302 680T314 717H329Q326 682 312 666Q299 650 279 650Q265 650 253 655T221 674Q198 690 188 694T168 698Q152 698 145 685T133 647H118Q121 683 135 700T168 717Q182 717 194 712T226 693Z"  />
<glyph unicode="&#xF6;" horiz-adv-x="446" d="M223 -14Q183 -14 153 7T101 67T69 159T58 274Q58 336 68 389T99 480T151 541T223 563Q263 563 293 541T345 481T377 389T388 274Q388 212 377 159T345 68T294 8T223 -14ZM223 543Q187 543 160 522T116 465T89 379T80 274Q80 218 89 169T115 84T160 27T223 6Q258 6 285 27T330 84T357 169T366 274Q366 330 357 379T329 464T285 522T223 543ZM162 688Q153 688 146 695T139 714Q139 725 146 732T162 739Q171 739 178 732T185 714Q185 702 178 695T162 688ZM286 688Q277 688 270 695T263 714Q263 725 270 732T286 739Q295 739 302 732T309 714Q309 702 302 695T286 688Z"  />
<glyph unicode="&#xF7;" horiz-adv-x="666" d="M369 470Q369 454 358 443T333 432Q319 432 309 443T298 470Q298 486 308 497T333 508Q347 508 358 497T369 470ZM94 293V313H573V293H94ZM369 136Q369 120 358 109T333 98Q319 98 309 109T298 136Q298 153 308 163T333 174Q347 174 358 163T369 136Z"  />
<glyph unicode="&#xF8;" horiz-adv-x="446" d="M329 506Q358 467 373 407T388 274Q388 212 377 159T345 68T294 8T223 -14Q158 -14 116 42L90 -16L71 -8L104 61Q81 99 70 153T58 274Q58 336 68 389T99 480T151 541T223 563Q277 563 316 521L341 574L358 568L329 506ZM366 274Q366 338 354 392T318 483L127 64Q144 36 168 21T223 6Q258 6 285 27T330 84T357 169T366 274ZM223 543Q187 543 160 522T116 465T89 379T80 274Q80 218 88 170T115 84L306 501Q289 521 269 532T223 543Z"  />
<glyph unicode="&#xF9;" horiz-adv-x="436" d="M218 -14Q177 -14 150 2T106 48T84 115T77 199V549H99V208Q99 171 103 135T120 71T156 25T218 7Q256 7 279 24T315 69T332 133T337 208V549H359V199Q359 154 353 116T330 48T286 3T218 -14ZM142 763L235 619H218L118 763H142Z"  />
<glyph unicode="&#xFA;" horiz-adv-x="436" d="M218 -14Q177 -14 150 2T106 48T84 115T77 199V549H99V208Q99 171 103 135T120 71T156 25T218 7Q256 7 279 24T315 69T332 133T337 208V549H359V199Q359 154 353 116T330 48T286 3T218 -14ZM215 619H198L291 763H315L215 619Z"  />
<glyph unicode="&#xFB;" horiz-adv-x="436" d="M218 -14Q177 -14 150 2T106 48T84 115T77 199V549H99V208Q99 171 103 135T120 71T156 25T218 7Q256 7 279 24T315 69T332 133T337 208V549H359V199Q359 154 353 116T330 48T286 3T218 -14ZM231 763L323 619H303L218 751L133 619H113L205 763H231Z"  />
<glyph unicode="&#xFC;" horiz-adv-x="436" d="M218 -14Q177 -14 150 2T106 48T84 115T77 199V549H99V208Q99 171 103 135T120 71T156 25T218 7Q256 7 279 24T315 69T332 133T337 208V549H359V199Q359 154 353 116T330 48T286 3T218 -14ZM156 688Q147 688 140 695T133 714Q133 725 140 732T156 739Q165 739 172 732T179 714Q179 702 172 695T156 688ZM280 688Q271 688 264 695T257 714Q257 725 264 732T280 739Q289 739 296 732T303 714Q303 702 296 695T280 688Z"  />
<glyph unicode="&#xFD;" horiz-adv-x="306" d="M162 0H140V240L8 549H31L152 264L275 549H298L162 240V0ZM149 619H132L225 763H249L149 619Z"  />
<glyph unicode="&#xFE;" horiz-adv-x="360" d="M108 159V0H86V549H108V442H195Q216 442 237 436T277 413T306 371T318 304Q318 235 284 197T199 159H108ZM108 422V179H196Q215 179 233 186T265 209T287 248T296 304Q296 336 288 358T265 395T231 415T192 422H108Z"  />
<glyph unicode="&#xFF;" horiz-adv-x="306" d="M162 0H140V240L8 549H31L152 264L275 549H298L162 240V0ZM86 688Q77 688 70 695T63 714Q63 725 70 732T86 739Q95 739 102 732T109 714Q109 702 102 695T86 688ZM210 688Q201 688 194 695T187 714Q187 725 194 732T210 739Q219 739 226 732T233 714Q233 702 226 695T210 688Z"  />
<glyph unicode="&#x131;" horiz-adv-x="192" d="M85 0V483H107V0H85Z"  />
<glyph unicode="&#x152;" horiz-adv-x="637" d="M296 0Q246 0 203 21T128 87T77 197T58 354Q58 444 77 511T128 621T203 686T297 708H586V688H369V377H572V357H369V20H593V0H296ZM347 20V688H300Q254 688 214 668T144 607T97 503T80 354Q80 268 97 205T144 101T214 40T300 20H347Z"  />
<glyph unicode="&#x153;" horiz-adv-x="497" d="M229 0Q191 0 158 17T99 68T60 153T46 274Q46 344 60 395T100 481T158 532T230 549H453V529H288V295H442V275H288V20H459V0H229ZM232 529Q198 529 168 514T116 468T82 388T69 274Q69 208 81 160T116 81T168 35T232 20H266V529H232Z"  />
<glyph unicode="&#x160;" horiz-adv-x="420" d="M366 166Q366 122 354 88T319 31T269 -4T209 -16Q158 -16 119 6T54 71L72 84Q96 44 133 24T208 4Q235 4 259 15T302 46T332 97T344 167Q344 203 332 231T301 280T257 318T209 346Q181 360 155 377T108 418T76 473T63 545Q63 589 76 622T111 678T162 712T223 724Q264 724 298 708T355 652L339 639Q317 676 288 690T222 704Q197 704 173 695T129 666T97 616T85 543Q85 506 96 479T125 431T165 396T210 370Q241 354 269 336T318 293T353 238T366 166ZM211 764L119 908H139L224 776L309 908H329L237 764H211Z"  />
<glyph unicode="&#x161;" horiz-adv-x="336" d="M163 -10Q123 -10 92 8T40 60L58 74Q76 42 104 26T162 10Q206 10 236 42T266 133Q266 162 257 182T233 218T199 244T160 268Q140 280 121 292T86 321T61 361T51 418Q51 452 61 478T89 523T129 550T177 559Q247 559 281 501L264 487Q249 516 227 528T175 540Q157 540 139 533T106 510T82 472T73 417Q73 390 81 370T103 335T133 309T167 289Q190 277 211 263T250 231T277 189T288 133Q288 98 278 72T250 27T211 0T163 -10ZM160 619L68 763H88L173 631L258 763H278L186 619H160Z"  />
<glyph unicode="&#x178;" d="M201 310V0H180V310L7 708H30L191 336L353 708H377L201 310ZM129 833Q120 833 113 840T106 859Q106 870 113 877T129 884Q138 884 145 877T152 859Q152 847 145 840T129 833ZM253 833Q244 833 237 840T230 859Q230 870 237 877T253 884Q262 884 269 877T276 859Q276 847 269 840T253 833Z"  />
<glyph unicode="&#x17D;" horiz-adv-x="364" d="M37 0V24L311 688H41V708H331V681L59 20H336V0H37ZM171 764L79 908H99L184 776L269 908H289L197 764H171Z"  />
<glyph unicode="&#x17E;" horiz-adv-x="303" d="M35 22L244 529H42V549H265V524L58 20H268V0H35V22ZM144 619L52 763H72L157 631L242 763H262L170 619H144Z"  />
<glyph unicode="&#x192;" horiz-adv-x="372" d="M167 298H93V318H170L192 449Q195 469 201 489T217 526T242 553T281 563Q296 563 308 559T330 546L318 527Q303 542 281 542Q264 542 253 534T234 514T222 486T214 454L192 318H274V298H189L138 -14Q132 -57 116 -84T59 -112Q51 -112 42 -110T25 -102L34 -82Q50 -90 59 -90Q87 -90 97 -73T113 -33L167 298Z"  />
<glyph unicode="&#x2C6;" horiz-adv-x="200" d="M113 763L205 619H185L100 751L15 619H-5L87 763H113Z"  />
<glyph unicode="&#x2C7;" horiz-adv-x="200" d="M87 619L-5 763H15L100 631L185 763H205L113 619H87Z"  />
<glyph unicode="&#x2DA;" horiz-adv-x="200" d="M186 705Q186 664 162 637T100 610Q63 610 39 637T14 705Q14 746 38 773T100 800Q137 800 161 773T186 705ZM167 705Q167 737 149 760T100 783Q69 783 51 760T33 705Q33 673 51 650T100 627Q131 627 149 650T167 705Z"  />
<glyph unicode="&#x2DC;" horiz-adv-x="200" d="M101 693Q113 685 121 680T134 673T144 670T154 669Q170 669 177 680T189 717H204Q201 682 187 666Q174 650 154 650Q140 650 128 655T96 674Q73 690 63 694T43 698Q27 698 20 685T8 647H-7Q-4 683 10 700T43 717Q57 717 69 712T101 693Z"  />
<glyph unicode="&#x3BC;" horiz-adv-x="556" d="M116 460V184Q116 155 122 124T144 66T188 23T260 5Q298 5 331 20T389 65T428 135T443 230V460H465V116Q465 105 465 89T466 57T467 25T468 0H444V121H442Q431 89 413 64T370 21T318 -5T260 -14Q203 -14 168 10T116 72V-228H94V460H116Z"  />
<glyph unicode="&#x2013;" horiz-adv-x="360" d="M24 244V264H336V244H24Z"  />
<glyph unicode="&#x2014;" horiz-adv-x="460" d="M24 244V264H436V244H24Z"  />
<glyph unicode="&#x2018;" horiz-adv-x="161" d="M98 708H115L76 480H53L98 708Z"  />
<glyph unicode="&#x2019;" horiz-adv-x="161" d="M70 480H53L92 708H115L70 480Z"  />
<glyph unicode="&#x201A;" horiz-adv-x="154" d="M69 -138H53L86 90H108L69 -138Z"  />
<glyph unicode="&#x201C;" horiz-adv-x="266" d="M98 708H115L76 480H53L98 708ZM203 708H220L181 480H158L203 708Z"  />
<glyph unicode="&#x201D;" horiz-adv-x="266" d="M175 480H158L197 708H220L175 480ZM70 480H53L92 708H115L70 480Z"  />
<glyph unicode="&#x201E;" horiz-adv-x="260" d="M70 -138H53L86 90H109L70 -138ZM174 -138H158L191 90H214L174 -138Z"  />
<glyph unicode="&#x2020;" horiz-adv-x="366" d="M194 481V-126H172V481H24V501H172V708H194V501H342V481H194Z"  />
<glyph unicode="&#x2021;" horiz-adv-x="366" d="M24 481V501H173V708H195V501H342V481H195V101H342V81H195V-126H173V81H24V101H173V481H24Z"  />
<glyph unicode="&#x2022;" horiz-adv-x="500" d="M73 354Q73 391 87 423T125 479T181 517T250 531Q287 531 319 517T375 479T413 423T427 354Q427 317 413 285T375 229T319 191T250 177Q213 177 181 191T125 229T87 285T73 354Z"  />
<glyph unicode="&#x2026;" horiz-adv-x="900" d="M150 -6Q141 -6 134 1T127 20Q127 31 134 38T150 45Q159 45 166 38T173 20Q173 8 166 1T150 -6ZM750 -6Q741 -6 734 1T727 20Q727 31 734 38T750 45Q759 45 766 38T773 20Q773 8 766 1T750 -6ZM450 -6Q441 -6 434 1T427 20Q427 31 434 38T450 45Q459 45 466 38T473 20Q473 8 466 1T450 -6Z"  />
<glyph unicode="&#x2030;" horiz-adv-x="664" d="M123 288Q84 288 63 326T42 424Q42 483 62 522T123 561Q162 561 183 522T204 424Q204 365 183 327T123 288ZM123 541Q94 541 79 509T64 424Q64 373 79 341T123 308Q152 308 167 340T182 424Q182 476 167 508T123 541ZM342 -10Q303 -10 282 28T261 126Q261 185 281 224T342 263Q381 263 402 224T423 126Q423 67 402 29T342 -10ZM342 243Q313 243 298 211T283 126Q283 75 298 43T342 10Q371 10 386 42T401 126Q401 178 386 210T342 243ZM541 -10Q502 -10 481 28T460 126Q460 185 480 224T541 263Q580 263 601 224T622 126Q622 67 601 29T541 -10ZM541 243Q512 243 497 211T482 126Q482 75 497 43T541 10Q570 10 585 42T600 126Q600 178 585 210T541 243ZM120 -11L322 571L343 565L140 -18L120 -11Z"  />
<glyph unicode="&#x2039;" horiz-adv-x="200" d="M139 434L155 424L67 237L155 50L139 41L45 237L139 434Z"  />
<glyph unicode="&#x203A;" horiz-adv-x="200" d="M61 41L45 50L133 237L45 424L61 434L155 237L61 41Z"  />
<glyph unicode="&#x20AC;" horiz-adv-x="440" d="M400 689Q389 695 369 701T313 708Q233 708 180 640T107 444H344L338 425H104Q102 410 101 389T100 348Q100 334 100 316T102 284H313L308 265H104Q111 204 128 155T171 72T231 19T305 0Q338 0 362 8T407 29L416 10Q397 -1 370 -10T304 -20Q254 -20 216 2T151 62T106 153T82 265H26L32 284H81Q79 297 79 315T78 348Q78 365 79 387T82 425H28L32 444H84Q106 586 165 657T313 728Q345 728 369 722T407 709L400 689H400Z"  />
<glyph unicode="&#x2122;" horiz-adv-x="760" d="M625 296V687H624L498 296H488L365 687H363V296H343V708H378L494 335L610 708H645V296H625ZM170 689V296H149V689H53V708H268V689H170Z"  />

</font>
</defs>
</svg>
