<?xml version="1.0" encoding="utf-8"?>
<!-- Generator: Adobe Illustrator 16.2.1, SVG Export Plug-In . SVG Version: 6.00 Build 0)  -->
<!DOCTYPE svg PUBLIC "-//W3C//DTD SVG 1.1//EN" "http://www.w3.org/Graphics/SVG/1.1/DTD/svg11.dtd">
<svg version="1.1" id="Layer_1" xmlns="http://www.w3.org/2000/svg" xmlns:xlink="http://www.w3.org/1999/xlink" x="0px" y="0px"
	 width="400px" height="400px" viewBox="0 0 400 400" enable-background="new 0 0 400 400" xml:space="preserve">
<ellipse fill="#F4D62B" cx="200.49" cy="183.91" rx="198.274" ry="93.099"/>
<path fill="#070808" d="M272.057,117.111l0.001,0.063c0,0,10.662,5.487,10.869,17.391c0.329,18.941-31.603,24.118-31.603,24.118
	c-9.11,1.242-24.399-5.171-24.399-5.171s-8.171-43.634-8.329-43.643l-11.135,15.172h-17.806l-11.183-15.144l-8.692,43.709
	c-9.523,5.383-25.259,4.56-25.259,4.56c-32.298-7.454-30.642-24.431-30.642-24.431c-0.585-5.846,7.291-13.137,11.974-16.919
	C62.396,128.63,23.195,157.042,23.195,189.224c0,23.407,22.273,44.45,57.717,58.998c5.063,1.246,12.171,2.974,15.989,3.804
	c0,0-8.281-12.698-8.281-18.495s6.901-15.459,21.808-14.079c14.907,1.381,28.985,12.698,28.985,12.698s8.807-11.317,14.355-11.317
	c0,0,22.912-5.244,44.794,33.464c0,0,17.593-31.808,39.125-33.74c11.706-1.051,20.152,11.87,20.152,11.87
	s17.943-14.354,30.918-13.25c12.974,1.104,18.771,7.177,19.323,13.25c0.553,6.074-8.558,19.324-8.558,19.324
	s8.915-1.514,15.979-3.491c35.495-14.551,57.806-35.608,57.806-59.035C373.309,157.291,333.203,128.63,272.057,117.111z"/>
</svg>
