<?xml version="1.0" encoding="utf-8"?>
<!-- Generator: Adobe Illustrator 16.2.1, SVG Export Plug-In . SVG Version: 6.00 Build 0)  -->
<!DOCTYPE svg PUBLIC "-//W3C//DTD SVG 1.1//EN" "http://www.w3.org/Graphics/SVG/1.1/DTD/svg11.dtd">
<svg version="1.1" id="Layer_1" xmlns="http://www.w3.org/2000/svg" xmlns:xlink="http://www.w3.org/1999/xlink" x="0px" y="0px"
	 width="256px" height="100px" viewBox="0 0 256 100" enable-background="new 0 0 256 100" xml:space="preserve">
<path fill="#FFFFFF" d="M188.842,58.959c0,0.398-0.144,0.755-0.428,1.069c-0.283,0.312-0.658,0.47-1.109,0.47
	c-0.459,0-0.831-0.157-1.116-0.47c-0.284-0.314-0.428-0.671-0.428-1.069c0-0.401,0.144-0.755,0.428-1.067
	c0.285-0.314,0.657-0.474,1.116-0.474c0.451,0,0.823,0.159,1.109,0.474C188.698,58.204,188.842,58.562,188.842,58.959z"/>
<path fill="#FFFFFF" d="M128.428,48.603h-3.137v11.723h-1.939V48.603h-2.794v-1.625h2.794V42.47c0-1.521,0.371-2.72,1.113-3.595
	c0.742-0.877,1.883-1.312,3.424-1.312c0.248,0,0.515,0.015,0.799,0.043c0.285,0.026,0.551,0.081,0.799,0.157l-0.344,1.711
	c-0.209-0.059-0.417-0.104-0.627-0.143c-0.209-0.037-0.447-0.059-0.714-0.059c-0.513,0-0.937,0.084-1.269,0.258
	c-0.334,0.172-0.59,0.415-0.771,0.73c-0.182,0.313-0.304,0.68-0.371,1.096c-0.066,0.419-0.1,0.866-0.1,1.342v4.278h3.139v1.626
	L128.428,48.603L128.428,48.603z"/>
<path fill="#FFFFFF" d="M140.745,51.688c0-1.151-0.307-2.009-0.914-2.577c-0.608-0.565-1.493-0.849-2.655-0.849
	c-0.797,0-1.538,0.144-2.223,0.428c-0.684,0.285-1.265,0.667-1.74,1.141l-1.084-1.282c0.551-0.552,1.278-1.008,2.182-1.373
	c0.902-0.354,1.926-0.536,3.068-0.536c0.723,0,1.396,0.098,2.025,0.299c0.628,0.197,1.178,0.496,1.654,0.896
	c0.476,0.401,0.848,0.903,1.113,1.511c0.268,0.611,0.4,1.322,0.4,2.14v5.847c0,0.519,0.018,1.046,0.055,1.6
	c0.039,0.552,0.094,1.017,0.169,1.399h-1.737c-0.057-0.323-0.104-0.678-0.141-1.057c-0.039-0.384-0.057-0.753-0.057-1.116h-0.058
	c-0.608,0.896-1.299,1.537-2.069,1.927c-0.77,0.39-1.697,0.587-2.782,0.587c-0.512,0-1.04-0.071-1.581-0.217
	c-0.543-0.14-1.037-0.377-1.483-0.7c-0.448-0.322-0.819-0.744-1.112-1.259c-0.297-0.516-0.443-1.143-0.443-1.892
	c0-1.027,0.262-1.845,0.784-2.442c0.524-0.603,1.223-1.053,2.099-1.349c0.873-0.295,1.878-0.485,3.008-0.571
	c1.133-0.085,2.307-0.127,3.521-0.127L140.745,51.688L140.745,51.688L140.745,51.688z M140.174,53.65
	c-0.8,0-1.604,0.035-2.411,0.102c-0.808,0.068-1.542,0.199-2.198,0.398c-0.657,0.202-1.191,0.492-1.611,0.873
	c-0.421,0.381-0.628,0.884-0.628,1.511c0,0.478,0.091,0.875,0.271,1.197c0.182,0.326,0.424,0.585,0.729,0.784
	c0.304,0.199,0.64,0.346,1.012,0.426c0.371,0.089,0.747,0.133,1.128,0.133c0.685,0,1.292-0.12,1.824-0.359
	c0.531-0.236,0.98-0.558,1.339-0.97c0.361-0.405,0.639-0.875,0.827-1.413c0.191-0.527,0.284-1.09,0.284-1.681v-1L140.174,53.65
	L140.174,53.65z"/>
<path fill="#FFFFFF" d="M151.386,47.362c0.789-0.487,1.668-0.726,2.639-0.726c0.36,0,0.737,0.033,1.126,0.112
	c0.391,0.075,0.771,0.224,1.143,0.442c0.373,0.22,0.713,0.51,1.027,0.871c0.314,0.359,0.584,0.824,0.812,1.397
	c0.455-0.914,1.079-1.612,1.869-2.098c0.787-0.486,1.725-0.726,2.81-0.726c1.693,0,2.962,0.5,3.808,1.511
	c0.847,1.008,1.27,2.338,1.27,3.993v8.19h-1.939v-7.396c0-1.404-0.262-2.536-0.785-3.393c-0.524-0.855-1.412-1.282-2.668-1.282
	c-0.703,0-1.297,0.142-1.783,0.428c-0.485,0.285-0.875,0.66-1.169,1.127c-0.296,0.465-0.51,0.992-0.643,1.581
	c-0.132,0.591-0.198,1.2-0.198,1.827v7.107h-1.939v-7.79c0-0.647-0.047-1.236-0.143-1.77c-0.096-0.536-0.262-0.988-0.5-1.355
	c-0.237-0.375-0.566-0.658-0.983-0.855c-0.419-0.201-0.951-0.301-1.596-0.301c-0.456,0-0.919,0.104-1.384,0.314
	c-0.467,0.211-0.884,0.527-1.255,0.952c-0.372,0.428-0.671,0.971-0.899,1.628c-0.228,0.653-0.342,1.431-0.342,2.326v6.845h-1.938
	V49.909c0-0.356-0.013-0.823-0.028-1.395c-0.018-0.569-0.049-1.083-0.085-1.539h1.853c0.037,0.36,0.064,0.759,0.086,1.195
	c0.017,0.44,0.027,0.802,0.027,1.086h0.057C150.013,48.483,150.598,47.848,151.386,47.362z"/>
<path fill="#FFFFFF" d="M184.693,53.65c0,1.01-0.177,1.942-0.528,2.795c-0.354,0.856-0.843,1.597-1.47,2.226
	c-0.626,0.632-1.376,1.116-2.252,1.466c-0.876,0.359-1.836,0.534-2.881,0.534c-1.026,0-1.98-0.175-2.855-0.534
	c-0.875-0.35-1.627-0.834-2.252-1.466c-0.627-0.629-1.116-1.371-1.471-2.226c-0.348-0.853-0.524-1.785-0.524-2.795
	c0-1.006,0.176-1.938,0.524-2.793c0.354-0.857,0.844-1.597,1.471-2.226c0.627-0.63,1.378-1.119,2.252-1.469
	c0.875-0.354,1.83-0.527,2.855-0.527c1.045,0,2.005,0.173,2.881,0.527c0.873,0.351,1.627,0.84,2.252,1.469
	c0.627,0.629,1.116,1.368,1.47,2.226C184.519,51.712,184.693,52.645,184.693,53.65z M182.643,53.65c0-0.738-0.122-1.438-0.356-2.096
	c-0.239-0.655-0.576-1.228-1.017-1.712c-0.432-0.484-0.968-0.87-1.593-1.156c-0.63-0.286-1.335-0.428-2.11-0.428
	c-0.783,0-1.48,0.142-2.099,0.428c-0.619,0.286-1.147,0.671-1.585,1.156c-0.436,0.484-0.774,1.057-1.012,1.712
	c-0.236,0.658-0.356,1.355-0.356,2.096c0,0.744,0.119,1.441,0.356,2.1c0.237,0.653,0.576,1.225,1.012,1.712
	c0.439,0.484,0.967,0.865,1.585,1.141c0.618,0.274,1.318,0.412,2.099,0.412c0.779,0,1.481-0.138,2.11-0.412
	c0.627-0.275,1.161-0.657,1.593-1.141c0.441-0.487,0.779-1.059,1.017-1.712C182.521,55.092,182.643,54.395,182.643,53.65z"/>
<path fill="#FFFFFF" d="M201.627,60.325c-0.035-0.36-0.062-0.757-0.083-1.195c-0.017-0.438-0.025-0.803-0.025-1.086h-0.06
	c-0.38,0.782-0.997,1.418-1.852,1.898c-0.859,0.487-1.761,0.729-2.713,0.729c-1.694,0-2.96-0.5-3.81-1.513
	c-0.843-1.008-1.267-2.341-1.267-3.993v-8.188h1.939v7.389c0,0.704,0.059,1.34,0.173,1.913c0.11,0.572,0.307,1.062,0.582,1.471
	c0.277,0.408,0.646,0.727,1.113,0.955c0.465,0.229,1.054,0.341,1.758,0.341c0.512,0,1.011-0.104,1.498-0.312
	c0.482-0.21,0.915-0.526,1.297-0.954c0.381-0.426,0.686-0.971,0.911-1.628c0.229-0.655,0.341-1.431,0.341-2.323v-6.846h1.942v10.411
	c0,0.359,0.009,0.826,0.028,1.396c0.016,0.571,0.045,1.085,0.085,1.544h-1.858L201.627,60.325L201.627,60.325z"/>
<path fill="#FFFFFF" d="M214.661,50.145c-0.285-0.554-0.717-1.003-1.297-1.355c-0.579-0.353-1.242-0.527-1.984-0.527
	c-0.34,0-0.683,0.035-1.023,0.115c-0.345,0.073-0.646,0.199-0.914,0.365c-0.268,0.173-0.48,0.395-0.642,0.66
	c-0.161,0.267-0.243,0.58-0.243,0.939c0,0.629,0.259,1.111,0.771,1.443c0.514,0.33,1.322,0.614,2.43,0.843
	c1.574,0.322,2.738,0.788,3.492,1.405c0.751,0.618,1.122,1.453,1.122,2.498c0,0.763-0.147,1.406-0.439,1.926
	c-0.298,0.524-0.68,0.956-1.156,1.286c-0.477,0.333-1.015,0.572-1.614,0.716c-0.599,0.14-1.201,0.21-1.81,0.21
	c-1.011,0-1.989-0.205-2.939-0.626c-0.951-0.414-1.729-1.077-2.338-1.967l1.54-1.141c0.344,0.587,0.845,1.083,1.513,1.481
	c0.665,0.399,1.396,0.601,2.197,0.601c0.419,0,0.817-0.04,1.196-0.115c0.384-0.075,0.714-0.211,0.997-0.4
	c0.29-0.188,0.519-0.43,0.688-0.729c0.167-0.292,0.256-0.657,0.256-1.096c0-0.702-0.339-1.231-1.013-1.584
	c-0.675-0.353-1.65-0.678-2.923-0.983c-0.399-0.096-0.824-0.215-1.271-0.356c-0.443-0.145-0.856-0.354-1.238-0.629
	c-0.382-0.275-0.696-0.621-0.94-1.043c-0.247-0.416-0.371-0.938-0.371-1.568c0-0.685,0.132-1.267,0.402-1.754
	c0.265-0.485,0.618-0.885,1.064-1.198c0.45-0.311,0.959-0.543,1.528-0.698c0.571-0.152,1.161-0.23,1.771-0.23
	c0.93,0,1.833,0.213,2.71,0.629c0.872,0.417,1.528,1.006,1.967,1.768L214.661,50.145z"/>
<g>
	<path fill="#FFFFFF" d="M68.648,46.282c0-1.904-0.382-4.715-1.698-6.744c-1.165-1.794-2.822-3.399-5.046-3.399
		c-2.79,0-2.66,4.17-2.66,4.17v16.942C64.465,56.442,68.648,51.629,68.648,46.282z"/>
	<path fill="#FFFFFF" d="M57.591,25.339c-14.369,0-26.017,11.469-26.017,25.617c0,13.141,10.047,23.969,22.99,25.446
		c0.887,0.067,1.638-0.593,1.638-1.183l0.014-15.268c-7.006-0.729-12.464-6.562-12.464-13.654c0-6.609,4.092-12.226,10.917-13.056
		l-0.218,3.233c-4.093,0.772-7.54,5.114-7.54,9.823c0,5.369,4.052,10.184,9.304,10.963V40.309c0-2.063,0.711-7.032,5.598-7.032
		c2.357,0,5.141,1.818,6.755,3.735c1.344,1.597,3.074,4.913,3.074,9.286c0,7.07-5.425,12.887-12.399,13.646L59.231,75.22
		c0,1.562,1.756,1.155,2.757,0.988c12.273-2.058,21.618-12.58,21.618-25.252C83.606,36.808,71.959,25.339,57.591,25.339z"/>
</g>
</svg>
