<?xml version="1.0" encoding="utf-8"?>
<!-- Generator: Adobe Illustrator 16.2.1, SVG Export Plug-In . SVG Version: 6.00 Build 0)  -->
<!DOCTYPE svg PUBLIC "-//W3C//DTD SVG 1.1//EN" "http://www.w3.org/Graphics/SVG/1.1/DTD/svg11.dtd">
<svg version="1.1" id="Layer_1" xmlns="http://www.w3.org/2000/svg" xmlns:xlink="http://www.w3.org/1999/xlink" x="0px" y="0px"
	 width="20px" height="20px" viewBox="0 0 20 20" enable-background="new 0 0 20 20" xml:space="preserve">
<path fill="#FFFFFF" d="M10,0C4.478,0,0,4.477,0,10c0,5.521,4.478,10,10,10c5.521,0,10-4.479,10-10C20,4.477,15.521,0,10,0z
	 M10,18.625c-4.764,0-8.625-3.861-8.625-8.625c0-4.764,3.861-8.625,8.625-8.625c4.764,0,8.625,3.861,8.625,8.625
	C18.625,14.764,14.762,18.625,10,18.625z"/>
<path fill="#FFFFFF" d="M10,11.73c1.027,0,1.857-0.832,1.857-1.856V6.35c0-1.026-0.83-1.857-1.857-1.857
	c-1.025,0-1.855,0.831-1.855,1.857v3.525C8.145,10.898,8.976,11.73,10,11.73 M12.527,8.641v1.24c0,0.698-0.283,1.324-0.74,1.784
	c-0.459,0.458-1.088,0.739-1.787,0.739s-1.327-0.281-1.787-0.739c-0.458-0.46-0.739-1.086-0.739-1.784v-1.24H6.55v1.24
	c0.001,1.748,1.302,3.189,2.988,3.418v1.283H8.024v0.925h3.953v-0.925h-1.513v-1.283c1.685-0.229,2.986-1.67,2.986-3.418v-1.24
	H12.527z"/>
</svg>
