<?xml version="1.0" encoding="utf-8"?>
<!-- Generator: Adobe Illustrator 16.2.1, SVG Export Plug-In . SVG Version: 6.00 Build 0)  -->
<!DOCTYPE svg PUBLIC "-//W3C//DTD SVG 1.1//EN" "http://www.w3.org/Graphics/SVG/1.1/DTD/svg11.dtd">
<svg version="1.1" id="Layer_1" xmlns="http://www.w3.org/2000/svg" xmlns:xlink="http://www.w3.org/1999/xlink" x="0px" y="0px"
	 width="20px" height="20px" viewBox="0 0 20 20" enable-background="new 0 0 20 20" xml:space="preserve">
<path fill="#FFFFFF" d="M10,0C4.478,0,0,4.477,0,10c0,5.521,4.478,10,10,10s10-4.479,10-10C20,4.477,15.522,0,10,0z M10,18.625
	c-4.764,0-8.625-3.861-8.625-8.625c0-4.764,3.861-8.625,8.625-8.625S18.625,5.236,18.625,10C18.625,14.764,14.762,18.625,10,18.625z
	"/>
<path fill="#FFFFFF" d="M11.124,5.888c-0.745-0.746-0.693-1.36-0.693-1.36L9.602,4.527l0.002,7.7
	c-0.426-0.148-0.938-0.177-1.458-0.046c-1.154,0.287-1.91,1.24-1.688,2.127c0.222,0.886,1.338,1.371,2.494,1.081
	c1.014-0.255,1.721-1.021,1.726-1.805V8.008c0,0,2.252,0.283,2.053,1.722c-0.198,1.439-0.417,1.925-0.417,1.925l0.302,0.301
	c0,0,0.889-1.655,0.959-2.719C13.713,7.172,11.956,6.719,11.124,5.888"/>
</svg>
