<?xml version="1.0" encoding="utf-8"?>
<!-- Generator: Adobe Illustrator 16.2.1, SVG Export Plug-In . SVG Version: 6.00 Build 0)  -->
<!DOCTYPE svg PUBLIC "-//W3C//DTD SVG 1.1//EN" "http://www.w3.org/Graphics/SVG/1.1/DTD/svg11.dtd">
<svg version="1.1" id="Layer_1" xmlns="http://www.w3.org/2000/svg" xmlns:xlink="http://www.w3.org/1999/xlink" x="0px" y="0px"
	 width="141.5px" height="141.25px" viewBox="0 0 141.5 141.25" enable-background="new 0 0 141.5 141.25" xml:space="preserve">
<path fill="#D8D8D8" d="M35.395,41.512c-1.952-1.953-1.954-5.118,0-7.071l0,0c1.953-1.953,5.119-1.952,7.071,0l63.64,63.64
	c1.953,1.953,1.953,5.118,0,7.071l0,0c-1.953,1.953-5.117,1.953-7.07,0L35.395,41.512z"/>
<path fill="#D8D8D8" d="M99.034,34.44c1.952-1.952,5.118-1.952,7.071,0l0,0c1.953,1.953,1.951,5.119,0,7.071l-63.641,63.64
	c-1.952,1.953-5.118,1.953-7.071,0l0,0c-1.953-1.952-1.952-5.118,0-7.07L99.034,34.44z"/>
</svg>
