<?xml version="1.0" encoding="utf-8"?>
<!-- Generator: Adobe Illustrator 16.2.1, SVG Export Plug-In . SVG Version: 6.00 Build 0)  -->
<!DOCTYPE svg PUBLIC "-//W3C//DTD SVG 1.1//EN" "http://www.w3.org/Graphics/SVG/1.1/DTD/svg11.dtd">
<svg version="1.1" id="Layer_1" xmlns="http://www.w3.org/2000/svg" xmlns:xlink="http://www.w3.org/1999/xlink" x="0px" y="0px"
	 width="400px" height="400px" viewBox="0 0 400 400" enable-background="new 0 0 400 400" xml:space="preserve">
<circle fill="#737373" stroke="#FFFFFF" stroke-miterlimit="10" cx="200.75" cy="199.795" r="194.023"/>
<circle fill="#282828" cx="200.75" cy="199.795" r="166.471"/>
<path fill="#D8D9D8" d="M100.609,119.683c-5.53-5.532-5.535-14.496,0-20.029l0,0c5.532-5.532,14.499-5.528,20.027,0l180.256,180.259
	c5.532,5.531,5.532,14.496,0,20.028l0,0c-5.532,5.532-14.494,5.532-20.025,0L100.609,119.683z"/>
<path fill="#D8D9D8" d="M280.864,99.652c5.528-5.53,14.496-5.53,20.028,0l0,0c5.532,5.532,5.526,14.5,0,20.027L120.633,299.937
	c-5.528,5.531-14.495,5.531-20.027,0l0,0c-5.532-5.53-5.53-14.498,0-20.026L280.864,99.652z"/>
</svg>
