<?xml version="1.0" encoding="utf-8"?>
<!-- Generator: Adobe Illustrator 16.2.1, SVG Export Plug-In . SVG Version: 6.00 Build 0)  -->
<!DOCTYPE svg PUBLIC "-//W3C//DTD SVG 1.1//EN" "http://www.w3.org/Graphics/SVG/1.1/DTD/svg11.dtd">
<svg version="1.1" id="Layer_1" xmlns="http://www.w3.org/2000/svg" xmlns:xlink="http://www.w3.org/1999/xlink" x="0px" y="0px"
	 width="96px" height="96px" viewBox="0 0 96 96" enable-background="new 0 0 96 96" xml:space="preserve">
<g>
	<path fill="#FFFFFF" d="M68.579,39.509c0-3.522-0.707-8.722-3.142-12.474c-2.153-3.319-5.22-6.29-9.333-6.29
		c-5.16,0-4.919,7.714-4.919,7.714v31.339C60.842,58.303,68.579,49.4,68.579,39.509z"/>
	<path fill="#FFFFFF" d="M48.125,0.768C21.546,0.768,0,21.983,0,48.154c0,24.308,18.585,44.339,42.526,47.07
		c1.641,0.123,3.03-1.098,3.03-2.188l0.025-28.241c-12.958-1.348-23.055-12.139-23.055-25.258c0-12.226,7.57-22.616,20.196-24.151
		l-0.403,5.981c-7.571,1.428-13.947,9.459-13.947,18.17c0,9.932,7.496,18.839,17.21,20.278V28.458
		c0-3.815,1.316-13.008,10.355-13.008c4.362,0,9.51,3.363,12.497,6.91c2.486,2.953,5.688,9.088,5.688,17.176
		c0,13.078-10.036,23.84-22.937,25.241l-0.025,28.26c0,2.889,3.248,2.137,5.101,1.829c22.703-3.807,39.988-23.271,39.988-46.712
		C96.249,21.983,74.704,0.768,48.125,0.768z"/>
</g>
</svg>
