<?xml version="1.0" encoding="utf-8"?>
<!-- Generator: Adobe Illustrator 16.2.1, SVG Export Plug-In . SVG Version: 6.00 Build 0)  -->
<!DOCTYPE svg PUBLIC "-//W3C//DTD SVG 1.1//EN" "http://www.w3.org/Graphics/SVG/1.1/DTD/svg11.dtd">
<svg version="1.1" id="Layer_1" xmlns="http://www.w3.org/2000/svg" xmlns:xlink="http://www.w3.org/1999/xlink" x="0px" y="0px"
	 width="400px" height="400px" viewBox="0 0 400 400" enable-background="new 0 0 400 400" xml:space="preserve">
<path fill="#D8D9D8" d="M239.047,230.646l-30.618-30.824l30.823-30.619c2.126-2.113,2.14-5.551,0.024-7.68
	c-2.113-2.127-5.552-2.139-7.68-0.026l-30.822,30.619l-30.617-30.821c-2.113-2.127-5.551-2.14-7.679-0.026
	c-2.13,2.114-2.139,5.552-0.025,7.68l30.616,30.821l-30.822,30.619c-2.128,2.112-2.141,5.551-0.026,7.678
	c2.114,2.13,5.553,2.141,7.68,0.025l30.822-30.616l30.62,30.824c2.114,2.128,5.55,2.139,7.679,0.024
	C241.15,236.211,241.161,232.772,239.047,230.646z"/>
</svg>
