<?xml version="1.0" encoding="utf-8"?>
<!-- Generator: Adobe Illustrator 16.2.1, SVG Export Plug-In . SVG Version: 6.00 Build 0)  -->
<!DOCTYPE svg PUBLIC "-//W3C//DTD SVG 1.1//EN" "http://www.w3.org/Graphics/SVG/1.1/DTD/svg11.dtd">
<svg version="1.1" id="Layer_1" xmlns="http://www.w3.org/2000/svg" xmlns:xlink="http://www.w3.org/1999/xlink" x="0px" y="0px"
	 width="400px" height="400px" viewBox="0 0 400 400" enable-background="new 0 0 400 400" xml:space="preserve">
<g>
	<path fill="#030303" d="M129.705,74.323l51.168,90.964c0,0,9.339-4.467,18.68-4.467c9.338,0,20.709,5.686,20.709,5.686
		l51.573-92.183c0,0-35.329-19.086-69.847-19.086C163.005,55.236,129.705,74.323,129.705,74.323z"/>
	<path fill="#030303" d="M345.013,201.648l-104.366,0.037c0,0-0.682,10.327-5.257,18.472c-4.577,8.142-15.104,15.27-15.104,15.27
		l55.089,90.125c0,0,33.949-21.446,50.863-51.539C345.336,240.029,345.013,201.648,345.013,201.648z"/>
	<path fill="#030303" d="M55.818,201.648l104.368,0.037c0,0,0.682,10.327,5.257,18.472c4.577,8.142,15.105,15.27,15.105,15.27
		l-55.09,90.125c0,0-33.949-21.446-50.861-51.539C55.494,240.029,55.818,201.648,55.818,201.648z"/>
</g>
</svg>
