<?xml version="1.0" encoding="utf-8"?>
<!-- Generator: Adobe Illustrator 16.0.0, SVG Export Plug-In . SVG Version: 6.00 Build 0)  -->
<!DOCTYPE svg PUBLIC "-//W3C//DTD SVG 1.1//EN" "http://www.w3.org/Graphics/SVG/1.1/DTD/svg11.dtd">
<svg version="1.1" id="Layer_1" xmlns="http://www.w3.org/2000/svg" xmlns:xlink="http://www.w3.org/1999/xlink" x="0px" y="0px"
	 width="141.5px" height="141.25px" viewBox="0 0 141.5 141.25" enable-background="new 0 0 141.5 141.25" xml:space="preserve">
<path fill="#282828" d="M130.463,119.016c0,5.297-4.293,9.59-9.589,9.59H20.626c-5.296,0-9.589-4.293-9.589-9.59V19.61
	c0-5.295,4.293-9.589,9.589-9.589h100.248c5.296,0,9.589,4.293,9.589,9.589V119.016z"/>
<path fill="#D8D8D8" d="M72.75,65.959l-36.756,36.757c-1.193,1.193-1.193,3.127,0,4.321c1.193,1.193,3.127,1.193,4.32,0
	l38.891-38.891c0.604-0.603,0.899-1.396,0.893-2.187c0.008-0.791-0.289-1.584-0.893-2.188L40.314,24.88
	c-1.193-1.193-3.127-1.193-4.32,0s-1.193,3.127,0,4.321L72.75,65.959z"/>
<path fill="#D8D8D8" d="M93.75,65.959l-36.756,36.757c-1.193,1.193-1.193,3.127,0,4.321c1.193,1.193,3.127,1.193,4.32,0
	l38.891-38.891c0.604-0.603,0.899-1.396,0.893-2.187c0.008-0.791-0.289-1.584-0.893-2.188L61.314,24.88
	c-1.193-1.193-3.127-1.193-4.32,0s-1.193,3.127,0,4.321L93.75,65.959z"/>
</svg>
