<?xml version="1.0" encoding="utf-8"?>
<!-- Generator: Adobe Illustrator 16.2.1, SVG Export Plug-In . SVG Version: 6.00 Build 0)  -->
<!DOCTYPE svg PUBLIC "-//W3C//DTD SVG 1.1//EN" "http://www.w3.org/Graphics/SVG/1.1/DTD/svg11.dtd">
<svg version="1.1" id="Layer_1" xmlns="http://www.w3.org/2000/svg" xmlns:xlink="http://www.w3.org/1999/xlink" x="0px" y="0px"
	 width="20px" height="20px" viewBox="0 0 20 20" enable-background="new 0 0 20 20" xml:space="preserve">
<rect x="11.672" y="0.767" fill="#303637" width="1.658" height="3.85"/>
<path fill="#303637" d="M16.9,0h-1.605v5.218H4.139V0H0.233c0,0-0.122,0-0.18,0.058S0,0.23,0,0.23v18.894
	c0,0-0.011,0.19,0.151,0.354c0.162,0.161,0.367,0.137,0.367,0.137h18.506c0,0,0.098-0.012,0.181-0.098
	c0.058-0.061,0.05-0.18,0.05-0.18V2.553L16.9,0z M16.386,17.411H2.868V9.897h13.518V17.411z"/>
<rect x="4.397" y="11.401" fill="#303637" width="10.479" height="0.288"/>
<rect x="4.397" y="15.547" fill="#303637" width="10.479" height="0.288"/>
<rect x="4.397" y="13.474" fill="#303637" width="10.479" height="0.288"/>
</svg>
