<?xml version="1.0" encoding="utf-8"?>
<!-- Generator: Adobe Illustrator 16.2.1, SVG Export Plug-In . SVG Version: 6.00 Build 0)  -->
<!DOCTYPE svg PUBLIC "-//W3C//DTD SVG 1.1//EN" "http://www.w3.org/Graphics/SVG/1.1/DTD/svg11.dtd">
<svg version="1.1" id="Layer_1" xmlns="http://www.w3.org/2000/svg" xmlns:xlink="http://www.w3.org/1999/xlink" x="0px" y="0px"
	 width="20px" height="20px" viewBox="0 0 20 20" enable-background="new 0 0 20 20" xml:space="preserve">
<path fill="#FFFFFF" d="M12.456,10.017L4.72,17.752c-0.463,0.464-0.463,1.215,0,1.678l0.259,0.258c0.463,0.463,1.213,0.463,1.676,0
	l8.375-8.373c0.08-0.049,0.156-0.105,0.225-0.175l0.259-0.26c0.238-0.238,0.354-0.551,0.347-0.863
	c0.007-0.312-0.108-0.625-0.347-0.862l-0.259-0.259c-0.068-0.069-0.145-0.126-0.225-0.175L6.656,0.347
	c-0.463-0.462-1.213-0.462-1.676,0l-0.26,0.26c-0.462,0.462-0.462,1.213,0,1.675L12.456,10.017z"/>
</svg>
