<?xml version="1.0" encoding="utf-8"?>
<!-- Generator: Adobe Illustrator 16.2.1, SVG Export Plug-In . SVG Version: 6.00 Build 0)  -->
<!DOCTYPE svg PUBLIC "-//W3C//DTD SVG 1.1//EN" "http://www.w3.org/Graphics/SVG/1.1/DTD/svg11.dtd">
<svg version="1.1" id="Layer_1" xmlns="http://www.w3.org/2000/svg" xmlns:xlink="http://www.w3.org/1999/xlink" x="0px" y="0px"
	 width="400px" height="400px" viewBox="0 0 400 400" enable-background="new 0 0 400 400" xml:space="preserve">
<path d="M-152.333,150c0,0.184-0.149,0.333-0.333,0.333H-158c-0.184,0-0.333-0.149-0.333-0.333l0,0c0-0.184,0.149-0.333,0.333-0.333
	h5.333C-152.482,149.667-152.333,149.816-152.333,150L-152.333,150z"/>
<polygon fill="#E62626" points="134.306,356.519 42.263,264.476 42.263,134.306 134.306,42.262 264.476,42.262 356.519,134.306 
	356.519,264.476 264.476,356.519 "/>
<path fill="#E62626" d="M281.981,0H116.8L0,116.8v165.181l116.8,116.8h165.181l116.8-116.8V116.8L281.981,0z M374.599,271.965
	L271.965,374.599H126.816L24.182,271.965V126.816L126.816,24.182h145.149l102.634,102.634V271.965z"/>
</svg>
