<?xml version="1.0" encoding="utf-8"?>
<!-- Generator: Adobe Illustrator 16.0.0, SVG Export Plug-In . SVG Version: 6.00 Build 0)  -->
<!DOCTYPE svg PUBLIC "-//W3C//DTD SVG 1.1//EN" "http://www.w3.org/Graphics/SVG/1.1/DTD/svg11.dtd">
<svg version="1.1" id="Layer_1" xmlns="http://www.w3.org/2000/svg" xmlns:xlink="http://www.w3.org/1999/xlink" x="0px" y="0px"
	 width="141.5px" height="141.25px" viewBox="0 0 141.5 141.25" enable-background="new 0 0 141.5 141.25" xml:space="preserve">
<path fill="#282828" d="M129.138,119.016c0,5.297-4.293,9.59-9.589,9.59H19.301c-5.296,0-9.589-4.293-9.589-9.59V19.61
	c0-5.295,4.293-9.589,9.589-9.589h100.248c5.296,0,9.589,4.293,9.589,9.589V119.016z"/>
<g>
	<path fill="#D8D8D8" d="M69.424,70.612L32.667,33.856c-1.193-1.193-3.127-1.193-4.321,0c-1.193,1.193-1.193,3.127,0,4.32
		l38.891,38.89c0.603,0.604,1.396,0.899,2.187,0.893c0.791,0.008,1.584-0.289,2.188-0.893l38.892-38.89
		c1.193-1.193,1.193-3.127,0-4.32s-3.127-1.193-4.321,0L69.424,70.612z"/>
	<path fill="#D8D8D8" d="M69.424,91.611L32.667,54.856c-1.193-1.193-3.127-1.193-4.321,0c-1.193,1.193-1.193,3.127,0,4.32
		l38.891,38.89c0.603,0.604,1.396,0.899,2.187,0.893c0.791,0.008,1.584-0.289,2.188-0.893l38.892-38.89
		c1.193-1.193,1.193-3.127,0-4.32s-3.127-1.193-4.321,0L69.424,91.611z"/>
</g>
</svg>
